<svg width="20" height="20" viewBox="0 0 20 20" fill="none" xmlns="http://www.w3.org/2000/svg">
<path d="M10.8333 16.6667V15C10.8333 12.6988 8.96783 10.8333 6.66667 10.8333C4.36548 10.8333 2.5 12.6988 2.5 15V16.6667H10.8333ZM10.8333 16.6667H17.5V15.8333C17.5 13.3788 15.6345 11.6667 13.3333 11.6667C12.1556 11.6667 11.0919 12.1879 10.3341 13.0259M9.16667 5.83334C9.16667 7.21405 8.04737 8.33334 6.66667 8.33334C5.28596 8.33334 4.16667 7.21405 4.16667 5.83334C4.16667 4.45264 5.28596 3.33334 6.66667 3.33334C8.04737 3.33334 9.16667 4.45264 9.16667 5.83334ZM15 7.50001C15 8.42051 14.2538 9.16668 13.3333 9.16668C12.4128 9.16668 11.6667 8.42051 11.6667 7.50001C11.6667 6.57954 12.4128 5.83334 13.3333 5.83334C14.2538 5.83334 15 6.57954 15 7.50001Z" stroke="#332F47" stroke-width="1.5" stroke-linecap="round" stroke-linejoin="round"/>
</svg>
