<svg width="20" height="20" viewBox="0 0 20 20" fill="none" xmlns="http://www.w3.org/2000/svg">
<path d="M7.08325 17.5H3.33325C3.33325 14.2783 5.94493 11.6667 9.16659 11.6667C9.30667 11.6667 9.44559 11.6716 9.58325 11.6813M12.4999 5.83333C12.4999 7.67428 11.0075 9.16667 9.16659 9.16667C7.32564 9.16667 5.83325 7.67428 5.83325 5.83333C5.83325 3.99238 7.32564 2.5 9.16659 2.5C11.0075 2.5 12.4999 3.99238 12.4999 5.83333ZM10.4914 17.5L12.1789 17.1625C12.3261 17.1331 12.3997 17.1183 12.4683 17.0914C12.5292 17.0676 12.587 17.0366 12.6407 16.9992C12.7011 16.957 12.7542 16.904 12.8603 16.7978L16.3248 13.3333C16.785 12.8731 16.785 12.1269 16.3248 11.6667C15.8646 11.2064 15.1183 11.2064 14.6581 11.6667L11.1936 15.1312C11.0875 15.2373 11.0344 15.2903 10.9923 15.3508C10.9548 15.4044 10.9239 15.4623 10.9 15.5232C10.8731 15.5918 10.8584 15.6654 10.8289 15.8125L10.4914 17.5Z" stroke="#3E3C47" stroke-width="1.5" stroke-linecap="round" stroke-linejoin="round"/>
</svg>
