<svg fill="none" height="1839" viewbox="0 0 1800 1839" width="1800" xmlns="http://www.w3.org/2000/svg">
<g id="floor_0">
<rect fill="#FDFBF4" height="1839" width="1800"></rect>
<path class="floor" d="M1142 588.475V474.458H1043.54V417.45H1142V147.956H1202.46V135H1247.37V147.956H1276.74V588.475H1142Z" fill="#C1C3C5"></path>
<path class="floor" d="M109 1574.89L113.319 1570.57L115.046 1572.3L127.138 1559.34L230.783 1455.69L222.146 1447.05L388.842 1280.35L387.979 328.483H672.14V644.619H805.151V1090.32H1406.29V1028.99H1305.24V836.375H1272.42V1002.22H856.974V810.462H1272.2V831.192H1346.7V843.285H1442.57V836.375H1448.62V843.285H1623.95V836.375H1632.59V869.197H1687V891.655L1642.09 1028.13L1594.58 1095.5V1432.37H1338.92L682.504 1690.63V1453.96H494.215L362.067 1587.85L351.703 1579.21L296.425 1634.49L298.153 1636.22L293.834 1641.4L291.243 1639.67L235.102 1694.95L236.829 1696.68L232.511 1701L229.056 1697.54L229.92 1696.68L114.182 1578.35L113.319 1579.21L109 1574.89Z" fill="#C1C3C5" id="floor"></path>
<g id="objects">
<path d="M1267.24 1249.87V1245.96H1306.56V1249.87H1267.24Z" fill="#A9E0F4" id="object_11" stroke="white" stroke-width="3"></path>
<path d="M216.817 1562.29L202.507 1576.6L188.021 1562.11L186.95 1561.04L185.889 1562.12L145.491 1603.36L118.5 1576.37V1574.16L173.044 1519.62L175.253 1519.06L216.817 1562.29Z" fill="#A9E0F4" id="object_12" stroke="white" stroke-width="3"></path>
<path d="M149.307 1607.25L186.972 1568.76L198.659 1580.45L160.22 1618.89L149.307 1607.25Z" fill="#A9E0F4" id="object_13" stroke="white" stroke-width="3"></path>
<path d="M219.831 1566.12L228.845 1574.45L228.222 1575.07L227.161 1576.13L228.222 1577.19L230.616 1579.58L176.596 1633.6L174.202 1631.21L173.437 1630.45L172.47 1630.93L171.755 1631.29L163.982 1622.81L219.831 1566.12Z" fill="#A9E0F4" id="object_14" stroke="white" stroke-width="3"></path>
<path d="M190.408 1649.14L178.717 1637.45L235.294 1580.88L246.204 1592.51L190.408 1649.14Z" fill="#A9E0F4" id="object_15" stroke="white" stroke-width="3"></path>
<path d="M205.099 1664.7L193.4 1653L231.874 1614.53L243.572 1626.23L205.099 1664.7Z" fill="#A9E0F4" id="object_16" stroke="white" stroke-width="3"></path>
<path d="M235.692 1610.71L250 1596.4L288.503 1635.72L232.729 1692.33L208.936 1668.54L249.356 1627.27L250.365 1626.24L249.375 1625.2L235.692 1610.71Z" fill="#A9E0F4" id="object_17" stroke="white" stroke-width="3"></path>
<path d="M232.251 1445.71L362.799 1313.47L367.883 1322.91L368.839 1324.68L370.264 1323.26L370.956 1322.57L398.377 1308.86L399.206 1308.44V1307.52V1305.56H454.075V1309.24V1310.74H455.575H458.393V1482.24L363.158 1579.17L232.251 1445.71Z" fill="#A9E0F4" id="object_18" stroke="white" stroke-width="3"></path>
<path d="M256.273 1529.67L279.381 1505.73L334.291 1562.31L305.093 1592.34L278.54 1618.07L178.417 1516.25L178.801 1515.48L179.137 1514.81L178.801 1514.14L178.435 1513.4L209.379 1484.09L254.123 1529.68L255.203 1530.78L256.273 1529.67Z" fill="#A9E0F4" id="object_19" stroke="white" stroke-width="3"></path>
<path d="M276.403 1502.7L255.204 1523.9L213.218 1481.09L233.631 1459.11L276.403 1502.7Z" fill="#A9E0F4" id="object_110" stroke="white" stroke-width="3"></path>
<path d="M282.363 1621.91L307.016 1597.25L316.987 1607.22L292.333 1631.88L282.363 1621.91Z" fill="#A9E0F4" id="object_111" stroke="white" stroke-width="3"></path>
<path d="M327.434 1596.87L320.821 1604.15L310.783 1593.39L317.396 1586.12L327.434 1596.87Z" fill="#A9E0F4" id="object_112" stroke="white" stroke-width="3"></path>
<path d="M336.888 1587.32L331.2 1593.01L321.175 1582.99L326.902 1576.62L336.888 1587.32Z" fill="#A9E0F4" id="object_113" stroke="white" stroke-width="3"></path>
<path d="M340.751 1583.56L330.681 1573.49L337.298 1566.21L348.029 1576.94L340.751 1583.56Z" fill="#A9E0F4" id="object_114" stroke="white" stroke-width="3"></path>
<path d="M504.579 1447.64V1446.57V1445.07H503.079H497.033H495.533V1446.57V1447.66H493.578H492.957L492.517 1448.1L463.984 1476.64V1306.41L552.538 1305.58V1308.38V1309.88H553.401V1446.83L504.579 1447.64Z" fill="#A9E0F4" id="object_115" stroke="white" stroke-width="3"></path>
<path d="M563.296 1304.7H646.186L645.822 1446.8H562.406V1446.54V1445.04H560.906H558.129V1398.25H560.906H562.406V1396.75V1391.3V1389.8H560.906H558.129V1309.44H561.762H563.246L563.262 1307.96L563.296 1304.7Z" fill="#A9E0F4" id="object_116" stroke="white" stroke-width="3"></path>
<path d="M681.231 1426.71V1446.8H651.41V1401.43H652.501H654.001V1399.93V1393.02V1391.52H652.501H651.41V1309.52H651.637H653.137V1308.02V1304.7H763.306L764.99 1412.47L682.501 1425.23L681.231 1425.42V1426.71Z" fill="#A9E0F4" id="object_117" stroke="white" stroke-width="3"></path>
<path d="M692.868 1429.71L763.283 1418.11V1418.93V1420.86L765.147 1420.39L767.026 1419.92L774.241 1463.21H772.557H771.693H770.193V1464.71V1465.16L692.868 1477.63V1429.71Z" fill="#A9E0F4" id="object_118" stroke="white" stroke-width="3"></path>
<path d="M689.413 1528.61V1484.13L775.613 1470.74L782.082 1514.41L689.413 1528.61Z" fill="#A9E0F4" id="object_119" stroke="white" stroke-width="3"></path>
<path d="M689.413 1534.23L783.382 1519.97L789.861 1564.52L689.413 1580.42V1534.23Z" fill="#A9E0F4" id="object_120" stroke="white" stroke-width="3"></path>
<path d="M689.413 1586.05L787.467 1570.97V1573.03L789.442 1572.37L790.305 1572.08L795.958 1615.69L794.539 1616.16L792.236 1616.93L792.766 1617.46L729.982 1628.2L728.491 1628.46L728.758 1629.94L731.748 1646.59L689.413 1652.98V1586.05Z" fill="#A9E0F4" id="object_121" stroke="white" stroke-width="3"></path>
<path d="M799.399 1637.36L739.229 1661.27C739.144 1660.71 739.041 1660.05 738.923 1659.3C738.572 1657.08 738.085 1654.08 737.545 1650.77C736.565 1644.77 735.406 1637.77 734.554 1632.65L797.209 1622.76L799.399 1637.36Z" fill="#A9E0F4" id="object_122" stroke="white" stroke-width="3"></path>
<path d="M734.59 1663.28L689.413 1681.03V1658.59L732.472 1651.27L734.59 1663.28Z" fill="#A9E0F4" id="object_123" stroke="white" stroke-width="3"></path>
<path d="M840.154 1388.93H818.97V1359.11H840.154V1388.93Z" fill="#A9E0F4" id="object_124" stroke="white" stroke-width="3"></path>
<path d="M860.883 1273.19H831.925V1252.01H860.883V1273.19Z" fill="#A9E0F4" id="object_125" stroke="white" stroke-width="3"></path>
<path d="M938.9 1546.73L941.826 1562.83L920.672 1566.6L918.474 1549.76L938.9 1546.73Z" fill="#A9E0F4" id="object_126" stroke="white" stroke-width="3"></path>
<path d="M918.41 1388.07L909.659 1376.4V1375.75V1370.57V1369.07H908.159H907.089L907.919 1309.31L908.83 1308.86L909.659 1308.44V1307.52V1307.29H954.163V1308.38V1309.88H955.663H959.982H961.482V1308.38V1307.29H1005.12V1380.07V1381.81L1006.85 1381.55L1067.58 1372.27L1075.97 1420.92L1076.22 1422.37L1077.68 1422.14L1136.67 1412.87L1144.02 1456.96L1143.28 1457.32L1142.45 1457.74V1458.67V1461.26V1462.12V1463.62H1143.95H1144.44L1150.78 1496.9H1150H1148.5V1498.4V1499.98L1106.98 1517.08L1106.54 1515.31L1106.09 1513.49L1104.41 1514.33L1100.96 1516.06L1100.13 1516.47V1517.4V1519.62L1098.81 1519.89V1517.4V1515.57L1097.02 1515.93L1092.7 1516.79L1091.49 1517.03V1518.26V1522.43L950.814 1578.36L921.734 1389.34L921.538 1388.07H920.251H918.41Z" fill="#A9E0F4" id="object_127" stroke="white" stroke-width="3"></path>
<path d="M1073.2 1371.2H1074.63V1369.7V1366.25V1364.75H1073.13H1068.81H1067.31V1366.25V1366.75L1061.67 1367.87V1353.06H1062.76H1064.26V1351.56V1346.38V1344.88H1062.76H1061.67V1309.88H1062.76H1064.26V1308.38V1305.56H1108.77V1308.38V1309.88H1110.27H1113.72H1115.22V1308.38V1305.56H1125.18V1308.38V1309.88H1126.68H1128.63V1333.65H1126.68H1125.18V1335.15V1340.34V1341.84H1126.68H1128.63V1355.25H1128.41H1126.91V1356.75V1360.2V1361.7H1128.41H1128.86L1136.14 1405.34H1134.45H1132.95V1406.84V1407.29L1081.25 1415.5L1073.2 1371.2Z" fill="#A9E0F4" id="object_128" stroke="white" stroke-width="3"></path>
<path d="M1278.92 1336.02V1336.14L1278.94 1336.26L1287.57 1389.78L1287.58 1389.81L1295.17 1442.16L1156.36 1497.18L1133.36 1357.49V1305.56H1278.92V1317.88V1336.02Z" fill="#A9E0F4" id="object_129" stroke="white" stroke-width="3"></path>
<path d="M1292.55 1388.48H1294.01V1386.98V1382.66V1381.16H1292.51H1292.03L1283.86 1337.89L1285.21 1337.44L1286.53 1337L1286.19 1335.65L1285.33 1332.2L1285.04 1331.06H1283.87H1283.65V1309.02H1284.74H1286.24V1307.52V1305.56H1330.52L1330.75 1307.68L1330.9 1309.02H1332.24H1336.56H1338.06V1307.52V1305.59L1381.7 1306.4V1307.52V1309.02H1383.2H1384.29V1426.07H1345.83V1425.21H1344.33H1340.88H1339.38V1426.2L1331.24 1426.94L1329.88 1427.07V1428.44V1429.13L1300.54 1440.23L1300.29 1438.94L1301.62 1438.5L1302.94 1438.06L1302.6 1436.71L1301.74 1433.25L1301.46 1432.12H1300.28H1299.83L1292.55 1388.48Z" fill="#A9E0F4" id="object_130" stroke="white" stroke-width="3"></path>
<path d="M1010.94 1352.66H1009.85V1309.02H1010.94H1012.44V1307.52V1306.42H1056.95V1367.58L1009.85 1375.7V1360.84H1010.94H1012.44V1359.34V1354.16V1352.66H1010.94Z" fill="#A9E0F4" id="object_131" stroke="white" stroke-width="3"></path>
<path d="M1453.16 1375.11H1451.66V1376.61V1425.21H1389.88V1306.42H1433.52V1307.52V1309.02H1435.02H1440.21H1441.71V1307.52V1306.42H1485.35V1375.11H1453.16Z" fill="#A9E0F4" id="object_132" stroke="white" stroke-width="3"></path>
<path d="M1456.44 1380.66L1485.35 1379.88V1380.07V1381.57H1486.85H1488.57H1490.3H1491.8V1380.07V1377.48V1376.03V1374.53H1490.3H1490.07V1330.61H1491.16H1492.66V1329.11V1324.79V1323.29H1491.16H1490.07V1309.02H1491.16H1492.66V1307.52V1306.42H1535.45L1536.29 1426.07H1458.06L1456.44 1380.66Z" fill="#A9E0F4" id="object_133" stroke="white" stroke-width="3"></path>
<path d="M1395.93 1251.15H1425.75V1272.33H1395.93V1251.15Z" fill="#A9E0F4" id="object_134" stroke="white" stroke-width="3"></path>
<path d="M1543.62 1324.79V1323.29H1542.12H1541.03V1309.02H1542.12H1543.62V1307.52V1306.42H1587.26V1426.07H1541.03V1381.57H1542.12H1543.62V1380.07V1375.75V1374.25H1542.12H1541.03V1329.74H1542.12H1543.62V1328.24V1324.79Z" fill="#A9E0F4" id="object_135" stroke="white" stroke-width="3"></path>
<path d="M1162.32 1264.56H1131.63V1251.15H1162.32V1264.56Z" fill="#A9E0F4" id="object_136" stroke="white" stroke-width="3"></path>
<path d="M1543.62 1100H1587.26V1218.78H1543.62V1100Z" fill="#A9E0F4" id="object_137" stroke="white" stroke-width="3"></path>
<path d="M1491.16 1142.77H1489.21V1100H1538.03V1142.77H1537.8H1536.3V1144.27V1148.59V1150.09H1537.8H1538.03V1194.6H1537.8H1536.3V1196.1V1199.55V1201.05H1537.8H1538.03V1215.33H1537.8H1536.3V1216.83V1218.78H1492.66V1218.55V1217.05H1491.16H1489.21V1201.05H1491.16H1492.66V1199.55V1196.1V1194.6H1491.16H1489.21V1150.09H1491.16H1492.66V1148.59V1144.27V1142.77H1491.16Z" fill="#A9E0F4" id="object_138" stroke="white" stroke-width="3"></path>
<path d="M1354.47 1100H1434.39V1216.19H1354.47V1100Z" fill="#A9E0F4" id="object_139" stroke="white" stroke-width="3"></path>
<path d="M1330.74 1218.81L1286.24 1219.62V1201.92H1330.74V1218.81Z" fill="#A9E0F4" id="object_140" stroke="white" stroke-width="3"></path>
<path d="M1296.49 1116.86H1294.99V1118.36V1130.68H1285.37V1101.09V1099.13H1303.46V1108V1116.86H1296.49Z" fill="#A9E0F4" id="object_141" stroke="white" stroke-width="3"></path>
<path d="M1307.83 1099.13H1330.74V1116.86H1307.83V1099.13Z" fill="#A9E0F4" id="object_142" stroke="white" stroke-width="3"></path>
<path d="M1299.19 1121.59H1330.74V1130.68H1299.19V1121.59Z" fill="#A9E0F4" id="object_143" stroke="white" stroke-width="3"></path>
<path d="M1330.74 1144.5H1310.42V1136.27H1330.74V1144.5Z" fill="#A9E0F4" id="object_144" stroke="white" stroke-width="3"></path>
<path d="M1320.15 1182.91H1330.74V1197.19H1287.1V1182.91H1297.69H1299.19V1181.41V1172.55H1318.65V1181.41V1182.91H1320.15Z" fill="#A9E0F4" id="object_145" stroke="white" stroke-width="3"></path>
<path d="M1227.96 1216.83V1219.64H1183.46V1100H1280.65V1143.64H1280.42H1278.92V1145.14V1149.46V1150.96H1280.42H1280.65V1194.6H1280.42H1278.92V1196.1V1200.42V1201.92H1280.42H1280.65V1215.33H1280.42H1278.92V1216.83V1219.64H1235.28V1216.83V1215.33H1233.78H1229.46H1227.96V1216.83Z" fill="#A9E0F4" id="object_146" stroke="white" stroke-width="3"></path>
<path d="M1112.84 1215.35L1112.63 1215.35V1201.2H1113.69H1115.19V1199.7V1196.31V1194.81H1113.69H1112.63V1149.74H1113.69H1115.19V1148.24V1144.81V1143.31H1113.69H1112.63V1099.13H1179.59V1143.64H1178.5H1177V1145.14V1148.59V1150.09H1178.5H1179.59V1194.6H1178.5H1177V1196.1V1200.42V1201.92H1178.5H1179.59V1215.33H1178.5H1177V1216.83V1219.64H1146.54H1115.21L1115.19 1216.84L1115.18 1215.35H1113.69H1112.86H1112.85L1112.84 1215.35Z" fill="#A9E0F4" id="object_147" stroke="white" stroke-width="3"></path>
<path d="M1056.53 1215.96V1217.05H1012.44V1099.13H1108.47V1217.05H1063.81V1215.96V1214.46H1062.31H1058.03H1056.53V1215.96Z" fill="#A9E0F4" id="object_148" stroke="white" stroke-width="3"></path>
<path d="M1005.48 1216.83V1219.64H961.482V1217.69V1216.19H959.982H959.755V1201.92H959.982H961.482V1200.42V1200.19H1005.48V1200.42V1201.92H1006.98H1007.71V1215.33H1006.98H1005.48V1216.83Z" fill="#A9E0F4" id="object_149" stroke="white" stroke-width="3"></path>
<path d="M1006.62 1150.09H1006.85V1194.6H1006.62H1005.12V1195.46H961.482V1194.6H959.982H959.755V1150.09H959.982H961.482V1148.59V1146V1144.5H959.982H959.755V1140.59H1006.85V1143.64H1006.62H1005.12V1145.14V1148.59V1150.09H1006.62Z" fill="#A9E0F4" id="object_150" stroke="white" stroke-width="3"></path>
<path d="M1007.71 1135.86H959.755V1099.13H1007.71V1135.86Z" fill="#A9E0F4" id="object_151" stroke="white" stroke-width="3"></path>
<path d="M936.434 1099.13H954.163V1116H936.434V1099.13Z" fill="#A9E0F4" id="object_152" stroke="white" stroke-width="3"></path>
<path d="M931.707 1099.13V1116H910.523V1099.13H931.707Z" fill="#A9E0F4" id="object_153" stroke="white" stroke-width="3"></path>
<path d="M921.342 1130.68H910.523V1120.73H921.342V1130.68Z" fill="#A9E0F4" id="object_154" stroke="white" stroke-width="3"></path>
<path d="M926.934 1120.73H954.163V1130.68H926.934V1120.73Z" fill="#A9E0F4" id="object_155" stroke="white" stroke-width="3"></path>
<path d="M943.571 1177.73H954.163V1220.51H910.523V1177.73H920.251H921.751V1176.23V1172.55H942.071V1176.23V1177.73H943.571Z" fill="#A9E0F4" id="object_156" stroke="white" stroke-width="3"></path>
<path d="M858.7 1149.23H904.086L904.914 1218.78H858.7V1149.23Z" fill="#A9E0F4" id="object_157" stroke="white" stroke-width="3"></path>
<path d="M904.068 1113.41H884.612V1099.13H904.068V1113.41Z" fill="#A9E0F4" id="object_158" stroke="white" stroke-width="3"></path>
<path d="M904.932 1118.14V1126.36H899.295V1118.14H904.932Z" fill="#A9E0F4" id="object_159" stroke="white" stroke-width="3"></path>
<path d="M877.929 1122.91H867.337V1112.09H879.021V1116.64V1118.14H880.521H893.704V1129.59V1131.09H895.204H904.932V1144.5H879.429V1124.41V1122.91H877.929Z" fill="#A9E0F4" id="object_160" stroke="white" stroke-width="3"></path>
<path d="M853.973 1133.91V1144.5H850.063V1131.95H864.974H866.474V1130.45V1127.64H874.702V1144.5H858.7V1133.91V1132.41H857.2H855.473H853.973V1133.91Z" fill="#A9E0F4" id="object_161" stroke="white" stroke-width="3"></path>
<path d="M845.336 1131.95V1143.64H839.699V1131.95H845.336Z" fill="#A9E0F4" id="object_162" stroke="white" stroke-width="3"></path>
<path d="M847.927 1126.36H840.562V1122.45H847.927V1126.36Z" fill="#A9E0F4" id="object_163" stroke="white" stroke-width="3"></path>
<path d="M840.562 1117.73V1112.95H848.791V1117.73H840.562Z" fill="#A9E0F4" id="object_164" stroke="white" stroke-width="3"></path>
<path d="M953.827 1144.5H937.298V1136.27H953.827V1144.5Z" fill="#A9E0F4" id="object_165" stroke="white" stroke-width="3"></path>
<path d="M840.562 1158.96V1149.23H853.109V1218.78H806.878V1137.14H817.697V1158.96V1160.46H819.197H839.062H840.562V1158.96Z" fill="#A9E0F4" id="object_166" stroke="white" stroke-width="3"></path>
<path d="M755.094 1137.14H802.15V1217.92H704.096V1169.07C712.4 1168.93 724.133 1168.77 734.085 1168.73C739.366 1168.7 744.136 1168.71 747.626 1168.76C749.373 1168.79 750.784 1168.83 751.772 1168.88C752.269 1168.91 752.634 1168.94 752.872 1168.97C752.907 1168.97 752.938 1168.97 752.964 1168.98C753.135 1169.06 753.344 1169.11 753.589 1169.11C754.167 1169.11 754.547 1168.8 754.719 1168.61C754.994 1168.31 755.09 1167.97 755.113 1167.89C755.114 1167.88 755.115 1167.88 755.116 1167.88C755.189 1167.62 755.23 1167.3 755.258 1167.02C755.318 1166.41 755.359 1165.53 755.387 1164.47C755.442 1162.33 755.447 1159.32 755.422 1155.97C755.376 1149.85 755.229 1142.53 755.094 1137.14Z" fill="#A9E0F4" id="object_167" stroke="white" stroke-width="3"></path>
<path d="M817.697 1131.55H735.19V1111.23H817.697V1131.55Z" fill="#A9E0F4" id="object_168" stroke="white" stroke-width="3"></path>
<path d="M723.098 1134.77V1130.23H730.462V1135.64V1137.14H731.962H751.191V1164.37H746.418V1159.82V1158.32H744.918H721.598H720.098V1159.82V1160.91H699.778V1136.27H721.598H723.098V1134.77Z" fill="#A9E0F4" id="object_169" stroke="white" stroke-width="3"></path>
<path d="M627.226 1151.82H649.273V1181.64H627.226V1151.82Z" fill="#A9E0F4" id="object_170" stroke="white" stroke-width="3"></path>
<path d="M527.49 1177.32H503.715V1145.77H527.49V1177.32Z" fill="#A9E0F4" id="object_171" stroke="white" stroke-width="3"></path>
<path d="M530.081 1061.42V1078.86H529.626V1074.31V1072.81H528.126H521.217H519.717V1074.31V1078.86H398.342V1075.18V1073.68H396.842H394.887V1062.86H395.115H396.615V1061.36V1055.31V1053.81H395.115H394.887V1006.72H530.081V1052.08H528.126H526.626V1053.58V1058.77V1059.69L527.456 1060.11L530.081 1061.42Z" fill="#A9E0F4" id="object_172" stroke="white" stroke-width="3"></path>
<path d="M457.699 999.357H456.199V1000.86V1002.85H395.751V860.75H530.945V925.057H526.361H524.861V926.557V932.675V934.175H526.361H530.945V999.357H526.361H524.861V1000.86V1002.85H465.283V1000.86V999.357H463.783H457.699Z" fill="#A9E0F4" id="object_173" stroke="white" stroke-width="3"></path>
<path d="M395.979 724.283H397.479V722.783V719.081L457.529 718.258V721.056V722.556H459.029H463.348H464.848V721.056V718.258L524.899 719.081V722.783V724.283H526.399H530.081V783.47H526.399H524.899V784.97V791.016V792.516H526.399H530.081V851.704H526.399H524.899V853.204V856.022H465.712V852.34V850.84H464.212H458.166H456.666V852.34V856.022H397.479V852.34V850.84H395.979H394.887V792.098L396.453 791.576L397.479 791.234V790.153V784.107V782.607H395.979H394.887V724.283H395.979Z" fill="#A9E0F4" id="object_174" stroke="white" stroke-width="3"></path>
<path d="M431.1 335.613H456.666V336.704V338.204H458.166H464.212H465.712V336.704V335.613H524.899V336.704V338.204H526.399H532.445H533.945V336.704V335.613H593.996V336.704V338.204H595.496H601.542H603.042V336.704V335.613H662.229V336.704V338.204H663.729H664.82V406.029H663.729H662.229V407.529V413.575V415.075H663.729H664.82V482.899H663.729H662.229V484.399V491.309V492.809H663.729H664.82V559.769H663.729H662.229V561.269V568.179V569.679H663.729H664.82V637.503H663.729H662.229V639.003V645.049V646.14H397.479V645.049V639.003V637.503H395.979H394.887V569.679H395.979H397.479V568.179V562.133V560.633H395.979H394.887V492.809H396.842H398.342V491.309V484.399V482.899H396.842H394.887V415.938H396.842H398.342V414.438V408.392V407.529V406.029H396.842H394.887V355.479H428.8H430.236L430.298 354.044L431.1 335.613Z" fill="#A9E0F4" id="object_175" stroke="white" stroke-width="3"></path>
<path d="M797.604 724.283H798.695V766.367H599.587V722.556H600.678H602.178V721.056V716.737V715.237H600.678H599.587V654.323H600.678H602.178V652.823V652.595H661.696V653.686V655.186H663.196H669.775H671.275V653.686V652.595H740.384V652.823V654.323H741.884H746.645H748.145V652.823V652.595H796.104V653.686V655.186H797.604H798.695V714.362L797.588 714.374L796.104 714.39V715.874V722.783V724.283H797.604Z" fill="#A9E0F4" id="object_176" stroke="white" stroke-width="3"></path>
<path d="M396.842 339.068H398.342V337.568V336.704V336.477H425.572V349.024H394.887V339.068H396.842Z" fill="#A9E0F4" id="object_177" stroke="white" stroke-width="3"></path>
<path d="M662.229 853.204V856.022H602.178V853.204V851.704H600.678H599.587V791.653H600.678H602.178V790.153V784.97V783.47H600.678H599.587V771.787H797.832V773.97H797.604H796.104V775.47V782.379V782.607V783.879V784.107V791.016V792.516H797.604H797.832V809.382H732.826H731.326V810.882V855.158H692.868V852.34V850.84H691.368H685.322H683.822V852.34V856.022H670.411V853.204V851.704H668.911H663.729H662.229V853.204Z" fill="#A9E0F4" id="object_178" stroke="white" stroke-width="3"></path>
<path d="M603.042 1001.98V998.307V996.807H601.542H599.587V933.301H601.542H603.042V931.801V925.755V924.255H601.542H599.587V860.75H698.278H734.553H736.053V859.25V814.109H797.832V850.84H797.604H796.104V852.34V858.386V859.886H797.604H797.832V894.025H719.87H718.37V895.525V1001.51H692.868V999.171V997.671H691.368H685.322H683.822V999.171V1001.51H671.275V998.307V996.807H669.775H662.002H660.502V998.307V1001.52L603.042 1001.98Z" fill="#A9E0F4" id="object_179" stroke="white" stroke-width="3"></path>
<path d="M624.226 1076.9V1080.59H599.587V1061.13H600.678H602.178V1059.63V1054.45V1052.95H600.678H599.587V1006.72H671.502H721.598H723.098V1005.22V899.617H798.289V923.392H797.604H796.104V924.892V931.801V933.301H797.604H798.289V996.807H797.604H796.104V998.307V1004.35V1005.85H797.604H798.289V1075.4H797.604H796.104V1076.9V1082.95V1084.45H797.604H798.289V1090.95H699.778V1080.36V1078.86H698.278H692.004V1076.9V1075.4H690.504H684.458H682.958V1076.9V1080.59H671.275V1076.9V1075.4H669.775H663.729H662.229V1076.9V1080.59H632.408V1076.9V1075.4H630.908H625.726H624.226V1076.9Z" fill="#A9E0F4" id="object_180" stroke="white" stroke-width="3"></path>
<path d="M389.764 1308.54L374.388 1316.6L373.218 1313.09L372.671 1311.45L371.124 1312.22L369.092 1313.24L367.521 1309.57L390.451 1285.87L391.821 1301.63L389.033 1303.72L388.113 1304.41L388.54 1305.48L389.764 1308.54Z" fill="#A9E0F4" id="object_181" stroke="white" stroke-width="3"></path>
<path d="M841.158 1558.86L826.11 1469.41L877.547 1461.25L891.76 1550.7L841.158 1558.86Z" fill="#A9E0F4" id="object_182" stroke="white" stroke-width="3"></path>
<path d="M931.103 1496.65L938.392 1541.19L896.444 1547.65L889.155 1503.1L931.103 1496.65Z" fill="#A9E0F4" id="object_183" stroke="white" stroke-width="3"></path>
<path d="M598.723 1215.33V1109.5H623.362V1215.33H598.723Z" fill="#A9E0F4" id="object_184" stroke="white" stroke-width="3"></path>
<path d="M718.37 1114.68V1125.5H699.778V1114.68H718.37Z" fill="#A9E0F4" id="object_185" stroke="white" stroke-width="3"></path>
<path d="M699.778 1109.95V1099.13H708.006V1109.95H699.778Z" fill="#A9E0F4" id="object_186" stroke="white" stroke-width="3"></path>
<path d="M712.733 1099.13H720.098V1109.95H712.733V1099.13Z" fill="#A9E0F4" id="object_187" stroke="white" stroke-width="3"></path>
<path d="M1235.28 1238.65V1228.69H1326.42V1238.65H1235.28Z" fill="#A9E0F4" id="object_188" stroke="white" stroke-width="3"></path>
<path d="M1363.11 76.5H1617.49V828.383H1363.11V76.5Z" fill="#A9E0F4" id="object_189" stroke="white" stroke-width="3"></path>
<path d="M1171.59 523.493H1148.04V515.265H1222.78V558.906H1204.18V545.723V544.223H1202.68H1180.86V543.131V541.631H1179.36H1173.09V524.993V523.493H1171.59Z" fill="#A9E0F4" id="object_190" stroke="white" stroke-width="3"></path>
<path d="M1156.27 529.085V540.768H1148.04V529.085H1156.27Z" fill="#A9E0F4" id="object_191" stroke="white" stroke-width="3"></path>
<path d="M1168.36 540.768H1160.14V529.085H1168.36V540.768Z" fill="#A9E0F4" id="object_192" stroke="white" stroke-width="3"></path>
<path d="M1177 547.45V548.95H1178.5H1199.46V558.906H1148.91V546.359H1177V547.45Z" fill="#A9E0F4" id="object_193" stroke="white" stroke-width="3"></path>
<path d="M1228.35 558.042L1227.52 478.989H1253.89L1254.72 558.042H1228.35Z" fill="#A9E0F4" id="object_194" stroke="white" stroke-width="3"></path>
<path d="M1173.09 221.831V170.645H1173.32H1174.82V169.144V166.553V165.053H1173.32H1148.04V155.098H1268.55V558.906H1259.48L1260.33 476.641L1260.34 475.126H1258.83H1225.14H1223.64V476.626V508.81H1151.5L1152.36 223.331H1171.59H1173.09V221.831Z" fill="#A9E0F4" id="object_195" stroke="white" stroke-width="3"></path>
<path d="M1086.31 445.532V467.352H1049.58V424.576H1129.5V444.032H1087.81H1086.31V445.532Z" fill="#A9E0F4" id="object_196" stroke="white" stroke-width="3"></path>
<path d="M1490.3 1081.86H1519.89V1090.95H1414.93V1042.99H1439.34H1440.84V1041.49V1030.04H1488.8V1080.36V1081.86H1490.3Z" fill="#A9E0F4" id="object_197" stroke="white" stroke-width="3"></path>
<path d="M1414.07 1030.04H1436.11V1039.13H1414.07V1030.04Z" fill="#A9E0F4" id="object_198" stroke="white" stroke-width="3"></path>
<path d="M1493.53 1030.04H1519.89V1077.13H1493.53V1030.04Z" fill="#A9E0F4" id="object_199" stroke="white" stroke-width="3"></path>
<path d="M1525.49 1090.95V1030.04H1632.52L1589.71 1090.95H1525.49Z" fill="#A9E0F4" id="object_1100" stroke="white" stroke-width="3"></path>
<path d="M883.748 977.805V871.114H935.162V977.805H883.748Z" fill="#A9E0F4" id="object_1101" stroke="white" stroke-width="3"></path>
<path d="M970.119 969.168V871.114H1178.73V969.168H970.119Z" fill="#A9E0F4" id="object_1102" stroke="white" stroke-width="3"></path>
<path d="M1216.73 997.443V997.671H1208.5V975.623H1245.23V997.671H1224.05V997.443V995.943H1222.55H1218.23H1216.73V997.443Z" fill="#A9E0F4" id="object_1103" stroke="white" stroke-width="3"></path>
<path d="M1264.24 997.443V997.671H1249.96V961.804H1265.1V995.943H1264.24V997.443Z" fill="#A9E0F4" id="object_1104" stroke="white" stroke-width="3"></path>
<path d="M1264.24 955.985V957.076H1234.41V931.574H1265.96V950.167H1265.74H1264.24V951.667V955.985Z" fill="#A9E0F4" id="object_1105" stroke="white" stroke-width="3"></path>
<path d="M1213.05 953.621H1208.5V947.984H1216.73V953.621H1215.87V955.121V956.849V958.349H1217.37H1221.69H1223.19V957.485H1224.05V955.985V951.667V950.167H1222.55H1221.46V948.848H1228.82V953.621H1226H1224.5V955.121V956.849V958.349H1226H1229.69V960.304V961.804H1231.19H1245.23V970.032H1208.5V958.349H1213.05H1214.55V956.849V955.121V953.621H1213.05Z" fill="#A9E0F4" id="object_1106" stroke="white" stroke-width="3"></path>
<path d="M1218.23 904.39H1216.73V905.89V906.117H1208.5V889.252H1218.46V904.39H1218.23Z" fill="#A9E0F4" id="object_1107" stroke="white" stroke-width="3"></path>
<path d="M1208.5 884.525V878.888H1218.46V884.525H1208.5Z" fill="#A9E0F4" id="object_1108" stroke="white" stroke-width="3"></path>
<path d="M1224.05 860.113V858.613H1222.55H1221.46V852.976H1243.51V884.525H1224.05V875.66V874.16H1222.55H1221.46V866.796H1222.55H1224.05V865.296V860.113Z" fill="#A9E0F4" id="object_1109" stroke="white" stroke-width="3"></path>
<path d="M1208.5 848.249V840.021H1223.64V848.249H1208.5Z" fill="#A9E0F4" id="object_1110" stroke="white" stroke-width="3"></path>
<path d="M1278.69 879.751H1280.65V914.527V914.755H1274.15V860.977V838.293H1304.81L1303.98 910.436H1286.24V879.751H1299.42H1300.92V878.251V875.66V874.16H1299.42H1278.69H1277.19V875.66V878.251V879.751H1278.69Z" fill="#A9E0F4" id="object_1111" stroke="white" stroke-width="3"></path>
<path d="M1242.64 840.021V848.249H1229.23V840.021H1242.64Z" fill="#A9E0F4" id="object_1112" stroke="white" stroke-width="3"></path>
<path d="M1312.15 845.658V838.293H1318.65V845.658H1312.15Z" fill="#A9E0F4" id="object_1113" stroke="white" stroke-width="3"></path>
<path d="M1322.51 844.794V838.293H1329.01V844.794H1322.51Z" fill="#A9E0F4" id="object_1114" stroke="white" stroke-width="3"></path>
<path d="M1341.11 844.794H1334.61V838.293H1341.11V844.794Z" fill="#A9E0F4" id="object_1115" stroke="white" stroke-width="3"></path>
<path d="M1320.79 882.342H1401.57V938.075H1320.79V882.342Z" fill="#A9E0F4" id="object_1116" stroke="white" stroke-width="3"></path>
<path d="M1334.61 964.395H1360.97V995.943H1334.61V964.395Z" fill="#A9E0F4" id="object_1117" stroke="white" stroke-width="3"></path>
<path d="M1334.61 1022.72V1001.53H1350.61V1022.72H1334.61Z" fill="#A9E0F4" id="object_1118" stroke="white" stroke-width="3"></path>
<path d="M1386.02 1022.72H1355.33V1000.67H1386.02V1022.72Z" fill="#A9E0F4" id="object_1119" stroke="white" stroke-width="3"></path>
<path d="M1365.7 971.305H1385.16V995.943H1365.7V971.305Z" fill="#A9E0F4" id="object_1120" stroke="white" stroke-width="3"></path>
<path d="M1433.3 978.214H1464.62V1022.72H1391.61V969.577H1431.8V976.714V978.214H1433.3Z" fill="#A9E0F4" id="object_1121" stroke="white" stroke-width="3"></path>
<path d="M1437.39 967.85H1464.62V973.487H1437.39V967.85Z" fill="#A9E0F4" id="object_1122" stroke="white" stroke-width="3"></path>
<path d="M1606.67 986.851H1612.31V992.488H1606.67V986.851Z" fill="#A9E0F4" id="object_1123" stroke="white" stroke-width="3"></path>
<path d="M1606.67 997.216H1612.31V1008.9H1606.67V997.216Z" fill="#A9E0F4" id="object_1124" stroke="white" stroke-width="3"></path>
<path d="M1620.49 1022.72V1005.85H1644.43L1637.83 1022.72H1620.49Z" fill="#A9E0F4" id="object_1125" stroke="white" stroke-width="3"></path>
<path d="M1621.58 917.346H1619.63V908.254H1637.1L1633.27 931.956L1620.49 931.246V924.664H1621.58H1623.08V923.164V918.846V917.346H1621.58Z" fill="#A9E0F4" id="object_1126" stroke="white" stroke-width="3"></path>
<path d="M1585.94 945.848V923.8H1612.31V945.848H1585.94Z" fill="#A9E0F4" id="object_1127" stroke="white" stroke-width="3"></path>
<path d="M1547.08 945.848V922.937H1581.22V945.848H1547.08Z" fill="#A9E0F4" id="object_1128" stroke="white" stroke-width="3"></path>
<path d="M1542.35 945.848H1518.58V933.301H1542.35V945.848Z" fill="#A9E0F4" id="object_1129" stroke="white" stroke-width="3"></path>
<path d="M1565.22 902.208H1582.08V918.209H1565.22V902.208Z" fill="#A9E0F4" id="object_1130" stroke="white" stroke-width="3"></path>
<path d="M1548.81 876.296H1582.08V896.617H1548.81V876.296Z" fill="#A9E0F4" id="object_1131" stroke="white" stroke-width="3"></path>
<path d="M1542.35 919.709V928.574H1519.44V902.208H1559.62V918.209H1543.85H1542.35V919.709Z" fill="#A9E0F4" id="object_1132" stroke="white" stroke-width="3"></path>
<path d="M1507.35 936.12V902.208H1513.85V944.984H1458.12V902.208H1479.07H1480.57V900.708V875.433H1543.21V896.617H1504.12H1502.62V898.117V936.12V937.62H1504.12H1505.85H1507.35V936.12Z" fill="#A9E0F4" id="object_1133" stroke="white" stroke-width="3"></path>
<path d="M1458.12 876.296H1475.84V896.617H1458.12V876.296Z" fill="#A9E0F4" id="object_1134" stroke="white" stroke-width="3"></path>
<path d="M1586.81 876.296H1612.31V919.073H1586.81V876.296Z" fill="#A9E0F4" id="object_1135" stroke="white" stroke-width="3"></path>
<path d="M1652.06 935.504L1638 933.161L1642.93 904.416L1643.23 902.663H1641.45H1619.63V890.116H1681.41V890.995L1667.21 940.272L1652.27 935.553L1652.17 935.521L1652.06 935.504Z" fill="#A9E0F4" id="object_1136" stroke="white" stroke-width="3"></path>
<path d="M1211.09 583.953V567.088H1271.15V583.953H1211.09Z" fill="#A9E0F4" id="object_1137" stroke="white" stroke-width="3"></path>
<path d="M1146.32 583.953V567.088H1205.5V583.953H1146.32Z" fill="#A9E0F4" id="object_1138" stroke="white" stroke-width="3"></path>
<path d="M1114.36 468.216V450.487H1129.5V468.216H1114.36Z" fill="#A9E0F4" id="object_1139" stroke="white" stroke-width="3"></path>
<path d="M1092.77 465.625V449.623H1107.9V465.625H1092.77Z" fill="#A9E0F4" id="object_1140" stroke="white" stroke-width="3"></path>
<path d="M532.218 327.431V295.883H603.497V327.431H532.218Z" fill="#A9E0F4" id="object_1141" stroke="white" stroke-width="3"></path>
<path d="M608.224 328.295V295.883H630.272V328.295H608.224Z" fill="#A9E0F4" id="object_1142" stroke="white" stroke-width="3"></path>
<path d="M386.705 1150.96V1214.46H356.884V1150.96H386.705Z" fill="#A9E0F4" id="object_1143" stroke="white" stroke-width="3"></path>
<path d="M358.839 875.024H357.339V876.524V909.572H348.247V808.063H386.705V875.024H358.839Z" fill="#A9E0F4" id="object_1144" stroke="white" stroke-width="3"></path>
</g>
</g>
</svg>