<svg fill="none" height="1943" viewbox="0 0 1800 1943" width="1800" xmlns="http://www.w3.org/2000/svg">
<g id="floor_2">
<rect fill="#FDFBF4" height="1943" width="1800"></rect>
<path class="floor" d="M605.624 1110.23V296.357L848.524 295.552V419.402H858.98C859.624 419.402 859.249 417.258 858.98 416.185H865.415V421.011H860.589L861.393 458.809L960.323 459.613V492.586H963.54V498.216H960.323V567.379H962.736V574.617H960.323V627.696H961.127V628.5H962.407V630.108H1036.73V627.696H1042.36V630.108L1170.25 629.304V627.696H1174.27V629.304L1236.2 630.912V627.696H1238.61V626.891H1236.2V624.479H1238.61V574.617H1234.59V567.379H1238.61V499.824H1235.4V492.586H1238.61V442.725L1169.44 443.529V416.99H1166.22V416.185V372.758C1190.62 372.489 1239.9 371.953 1241.83 371.953C1243.76 371.953 1242.63 218.079 1241.83 141.142H1374.54V507.867H1431.65V567.071H1435.67V76H1662.48L1661.68 751.546H1435.67V601.96H1431.65V628.5V633.325V688.816H1393.84V889.872H1471.06H1489.56V888.507H1395.45V753.154H1722V772.455L1682.59 889.872L1638.35 952.601V1240.51H1419.58L855.763 1461.67V1259.01H696.511L178.538 1784.17L95.6947 1867V1862.17L94.0861 1860.57L95.6947 1858.15L78 1624.13L115.802 1585.52L126.258 1595.98L605.624 1110.23Z" fill="#C1C3C5" id="floor"></path>
<g id="objects">
<path d="M390.5 1336.85L410.962 1356.61L388.041 1380.25L367.574 1359.78L379.025 1348.33L390.5 1336.85Z" fill="#A9E0F4" id="object_21" stroke="white" stroke-width="4"></path>
<path d="M516.983 1404.69L523.621 1410.66L521.584 1413.21L520.335 1414.77L521.896 1416.02L525.917 1419.23L526.882 1420.01L480.098 1467.48L479.532 1466.91L475.512 1462.89L474.098 1461.48L472.684 1462.89L470.918 1464.66L426.256 1417.69L428.073 1415.87L429.487 1414.46L428.073 1413.04L427.075 1412.04L472.638 1366.48L475.261 1368.58L476.659 1369.7L477.924 1368.43L481.141 1365.22L482.555 1363.8L481.141 1362.39L478.535 1359.78L515.929 1322.39L570.977 1375.9L549.619 1397.97L535.778 1384.86L534.33 1383.49L532.954 1384.94L516.873 1401.82L515.454 1403.31L516.983 1404.69Z" fill="#A9E0F4" id="object_22" stroke="white" stroke-width="4"></path>
<path d="M395.896 1332.62L394.912 1331.64L418.452 1308.1L419.154 1308.98L418.008 1310.12L416.428 1311.7L418.172 1313.1L422.193 1316.32L423.591 1317.43L424.856 1316.17L425.818 1315.21L438.339 1328.39L415.374 1351.35L395.896 1332.62Z" fill="#A9E0F4" id="object_23" stroke="white" stroke-width="4"></path>
<path d="M442.83 1324.03L423.03 1303.52L428.266 1298.28L448.687 1318.7L442.83 1324.03Z" fill="#A9E0F4" id="object_24" stroke="white" stroke-width="4"></path>
<path d="M451.64 1314.39L431.844 1294.6C433.168 1293.17 434.758 1291.48 436.19 1290.02C437.158 1289.03 438.035 1288.16 438.701 1287.54C439.112 1287.91 439.62 1288.37 440.213 1288.93C441.827 1290.44 444.006 1292.54 446.409 1294.88C450.618 1298.98 455.487 1303.81 459.15 1307.46L451.64 1314.39Z" fill="#A9E0F4" id="object_25" stroke="white" stroke-width="4"></path>
<path d="M462.816 1303.11L442.377 1283.37L455.652 1270.09L466.276 1280.01L476.094 1289.83L462.816 1303.11Z" fill="#A9E0F4" id="object_26" stroke="white" stroke-width="4"></path>
<path d="M490.957 1274.16L471.284 1255.22L491.008 1234.79L510.668 1254.45L490.957 1274.16Z" fill="#A9E0F4" id="object_27" stroke="white" stroke-width="4"></path>
<path d="M466.799 1272.46L460.785 1266.45L466.924 1259.75L472.938 1265.77L466.799 1272.46Z" fill="#A9E0F4" id="object_28" stroke="white" stroke-width="4"></path>
<path d="M575.588 1372.05L575.41 1372.23L521.15 1317.97L523.95 1315.17L525.752 1316.97L527.018 1318.24L528.415 1317.12L532.436 1313.9L534.181 1312.51L532.6 1310.93L529.994 1308.32L575.41 1262.91L576.408 1263.9L587.664 1275.16L587.678 1275.17L587.691 1275.19L629.673 1315.61L575.588 1372.05Z" fill="#A9E0F4" id="object_29" stroke="white" stroke-width="4"></path>
<path d="M561.299 1203.82L515.08 1250.04L495.422 1231.08L540.883 1184.11L561.299 1203.82Z" fill="#A9E0F4" id="object_210" stroke="white" stroke-width="4"></path>
<path d="M588.468 1148.12L589.518 1149.17L590.827 1148.47L610.678 1137.83L611.929 1151.59L564.92 1199.37L545.283 1180.44L582.66 1142.31L588.468 1148.12Z" fill="#A9E0F4" id="object_211" stroke="white" stroke-width="4"></path>
<path d="M704.087 1132.62H746.283V1133.84V1135.84H748.283H750.303V1203.4H748.283H746.283V1205.4V1211.03V1213.03H748.283H750.303V1250.84H748.283H746.283V1252.45H706.863V1250.84H704.863H699.235H697.235V1252.45H696.019H695.175L694.586 1253.05L634.891 1314.32L633.718 1313.15L635.52 1311.34L636.934 1309.93L635.52 1308.51L632.304 1305.3L630.89 1303.88L629.475 1305.3L627.673 1307.1L582.258 1261.69L583.256 1260.69L584.67 1259.27L583.256 1257.86L581.45 1256.05L704.087 1132.62Z" fill="#A9E0F4" id="object_212" stroke="white" stroke-width="4"></path>
<path d="M776.425 1229.94H755.911V1135.84H756.715V1133.84V1133.43H805.783V1134.64V1136.64H807.783H811.803H813.803V1134.64V1133.43H869.803V1134.46V1136.46H871.803H875.502H877.502V1134.46V1133.43H913.527V1134.64V1136.64H915.527H915.939V1203.4H915.527H913.527V1205.4V1207.38L877.324 1206.66V1206.21V1204.21H875.324H871.304H869.304V1206.21V1206.62H855.223H853.223V1208.62V1252.45H814.189V1250.84H812.189H806.979H804.979V1252.45H778.425V1231.94V1229.94H776.425Z" fill="#A9E0F4" id="object_213" stroke="white" stroke-width="4"></path>
<path d="M900.466 1423.25L862.047 1429.78V1235.96V1233.96H860.047H858.831V1212.23H917.733L928.097 1226.29L954.264 1399.15L900.711 1408.47L898.859 1408.79L899.066 1410.66L900.466 1423.25Z" fill="#A9E0F4" id="object_214" stroke="white" stroke-width="4"></path>
<path d="M862.047 1434.67L901.075 1428.78L902.785 1437.33L862.047 1453.33V1434.67Z" fill="#A9E0F4" id="object_215" stroke="white" stroke-width="4"></path>
<path d="M904.945 1413.7L955.711 1405.49L957.497 1415.61L908.273 1435L904.945 1413.7Z" fill="#A9E0F4" id="object_216" stroke="white" stroke-width="4"></path>
<path d="M1078.9 1352.48L1062.03 1355.07C1061.6 1350.96 1060.93 1345.24 1060.36 1342.12L1077.06 1339.55L1078.9 1352.48Z" fill="#A9E0F4" id="object_217" stroke="white" stroke-width="4"></path>
<path d="M1069.78 1252.08L1123.73 1243.08L1140.04 1344.03L1087.58 1364.26L1069.78 1252.08Z" fill="#A9E0F4" id="object_218" stroke="white" stroke-width="4"></path>
<path d="M1200.6 1274.87L1200.92 1276.83L1202.88 1276.53L1253.16 1268.79L1257.45 1297.39L1145.47 1340.93L1130.08 1242.45L1193.69 1232.61L1200.6 1274.87Z" fill="#A9E0F4" id="object_219" stroke="white" stroke-width="4"></path>
<path d="M1206.62 1269.07L1200.07 1231.95L1245.93 1223.81L1251.76 1262.41L1206.62 1269.07Z" fill="#A9E0F4" id="object_220" stroke="white" stroke-width="4"></path>
<path d="M1297.62 1281.96L1290.31 1284.05L1288.99 1273.5L1288.74 1271.48L1286.72 1271.77L1271.79 1273.9L1263.56 1220.76L1287.74 1217.31L1297.62 1281.96Z" fill="#A9E0F4" id="object_221" stroke="white" stroke-width="4"></path>
<path d="M1339.46 1265.22L1303.88 1279.02L1294.11 1215.91L1331.16 1210.1L1339.46 1265.22Z" fill="#A9E0F4" id="object_222" stroke="white" stroke-width="4"></path>
<path d="M1382.11 1248.52C1381.4 1248.84 1380.4 1249.25 1379.16 1249.75C1376.45 1250.82 1372.7 1252.26 1368.52 1253.82C1361.06 1256.62 1352.26 1259.83 1345.7 1262.2L1337.53 1209.48L1374.61 1203.66C1375.94 1211.49 1377.76 1222.31 1379.31 1231.52C1380.14 1236.52 1380.9 1241.05 1381.44 1244.36C1381.71 1246.02 1381.93 1247.37 1382.08 1248.33C1382.09 1248.4 1382.1 1248.46 1382.11 1248.52ZM1382.3 1249.79C1382.3 1249.79 1382.3 1249.79 1382.3 1249.78C1382.3 1249.79 1382.3 1249.79 1382.3 1249.79Z" fill="#A9E0F4" id="object_223" stroke="white" stroke-width="4"></path>
<path d="M1419.78 1234.08L1387.51 1246.09L1380.94 1203.04L1418.24 1196.95L1470.74 1196.17V1234.73L1420.51 1233.96L1420.13 1233.95L1419.78 1234.08Z" fill="#A9E0F4" id="object_224" stroke="white" stroke-width="4"></path>
<path d="M1510.69 1152.73H1631.55V1233.97L1477.15 1234.75V1194.84L1510.69 1152.73Z" fill="#A9E0F4" id="object_225" stroke="white" stroke-width="4"></path>
<path d="M1460.68 1023.29H1418.46V956.534H1631.55V1037.76H1462.68V1025.29V1023.29H1460.68Z" fill="#A9E0F4" id="object_226" stroke="white" stroke-width="4"></path>
<path d="M1331.62 1161.23V1105.29H1413.65V1147.43L1331.62 1161.23Z" fill="#A9E0F4" id="object_227" stroke="white" stroke-width="4"></path>
<path d="M1325.21 1161.09L1227.12 1177.31L1228.67 1059.47L1325.21 1060.24V1161.09Z" fill="#A9E0F4" id="object_228" stroke="white" stroke-width="4"></path>
<path d="M1185.28 1133.84V1061.06H1221.48V1177.97L1141.06 1190.99V1133.43H1177.26V1133.84V1135.84H1179.26H1183.28H1185.28V1133.84Z" fill="#A9E0F4" id="object_229" stroke="white" stroke-width="4"></path>
<path d="M1178.06 1061.06V1127.83C1141.5 1127.96 1087.82 1128.12 1043.03 1128.16C1020.22 1128.18 999.73 1128.18 984.977 1128.13C977.6 1128.1 971.664 1128.07 967.595 1128.02C965.906 1127.99 964.546 1127.97 963.541 1127.95C963.545 1127.84 963.549 1127.73 963.553 1127.62C963.605 1126.21 963.642 1124.22 963.668 1121.79C963.719 1116.94 963.724 1110.29 963.701 1102.94C963.656 1089.06 963.51 1072.67 963.382 1061.06H1178.06Z" fill="#A9E0F4" id="object_230" stroke="white" stroke-width="4"></path>
<path d="M1135.45 1133.43V1191.65L974.257 1218.51L963.359 1204.71V1133.43H1135.45Z" fill="#A9E0F4" id="object_231" stroke="white" stroke-width="4"></path>
<path d="M727.377 691.194H783.269V869.716H726.573H611.984V302.808C621.404 302.705 634.553 302.75 645.638 302.893C651.58 302.97 656.917 303.075 660.763 303.201C662.574 303.261 664.038 303.324 665.072 303.39V432.699V434.699H667.072H724.579L725.377 689.201L725.383 691.194H727.377Z" fill="#A9E0F4" id="object_232" stroke="white" stroke-width="4"></path>
<path d="M732.424 429.162L732.416 427.17H730.424H671.485V304.041V302.833H841.482V420.347V422.347H843.482H858.321V461.254V463.254H860.321H956.946V628.498H848.69V626.487V624.487H846.69H842.681H840.681V626.487V628.498H790.156V626.487V624.487H788.156H733.218L732.424 429.162Z" fill="#A9E0F4" id="object_233" stroke="white" stroke-width="4"></path>
<path d="M783.297 683.978H731.789V630.89H784.045L783.297 683.978Z" fill="#A9E0F4" id="object_234" stroke="white" stroke-width="4"></path>
<path d="M1166.81 443.956V445.956H1168.81H1235.15V627.694H964.163V458.429V456.429H962.163H866.067V422.638H1166.81V443.956Z" fill="#A9E0F4" id="object_235" stroke="white" stroke-width="4"></path>
<path d="M859.593 683.151L956.142 682.366V895.838V897.838H958.142H962.163H964.163V896.23H1001.17V947.71H974.224H972.224V948.514H971.007H958.947H956.947V950.514V953.73V955.73H958.947H959.359V977.46H917.135H915.135V979.46V992.737H873.704L848.378 968.946V932.021V930.021H846.378H843.554V876.128H846.378H848.378V874.128V869.304V867.304H846.378H843.554V814.216H846.378H848.378V812.216V807.391V805.391H846.378H843.582L844.33 752.303H846.378H848.378V750.303V744.674V742.674H846.378H844.358V693.606H845.574H847.574V691.606V687.586V687.393L859.593 683.151Z" fill="#A9E0F4" id="object_236" stroke="white" stroke-width="4"></path>
<path d="M921.548 992.737V983.068H960.163V992.737H921.548Z" fill="#A9E0F4" id="object_237" stroke="white" stroke-width="4"></path>
<path d="M972.203 979.068V968.595H972.224V973.832V979.068H972.203Z" fill="#A9E0F4" id="object_238" stroke="white" stroke-width="4"></path>
<path d="M1005.19 959.771H993.109V956.534H1005.19V959.771Z" fill="#A9E0F4" id="object_239" stroke="white" stroke-width="4"></path>
<path d="M1026.08 985.48H1034.14V1007.21H1026.08V985.48Z" fill="#A9E0F4" id="object_240" stroke="white" stroke-width="4"></path>
<path d="M1021.27 979.46V1007.21H993.109V965.379H1008.8H1010.8V963.379V956.534H1034.14V970.224H1023.27H1021.27V972.224V975.44V977.44H1023.27H1024.08H1026.08V975.832H1034.14V979.872H1026.08V979.46V977.46H1024.08H1023.27H1021.27V979.46Z" fill="#A9E0F4" id="object_241" stroke="white" stroke-width="4"></path>
<path d="M1049 981.48H1047V983.48V1007.21H1039.74V956.534H1089.62V981.48H1049Z" fill="#A9E0F4" id="object_242" stroke="white" stroke-width="4"></path>
<path d="M1097.64 949.71V947.71H1095.64H1009.19V896.23H1325.98L1325.23 948.514H1282.18H1280.18V950.514V1012.84H1096.03V956.534H1097.64V954.534V949.71Z" fill="#A9E0F4" id="object_243" stroke="white" stroke-width="4"></path>
<path d="M1286.59 1012.03V954.926H1326.01V1012.03H1286.59Z" fill="#A9E0F4" id="object_244" stroke="white" stroke-width="4"></path>
<path d="M1393.53 981.481V975.832H1412.04V981.481H1393.53Z" fill="#A9E0F4" id="object_245" stroke="white" stroke-width="4"></path>
<path d="M1393.53 956.534H1412.04V969.419H1393.53V956.534Z" fill="#A9E0F4" id="object_246" stroke="white" stroke-width="4"></path>
<path d="M386.649 1385.32L386.667 1385.33L386.686 1385.35L417.361 1414.49L416.399 1415.45L415.134 1416.72L416.252 1418.12L419.468 1422.14L420.614 1423.57L422.139 1422.55L423.164 1421.87L468.077 1468.31L467.859 1468.52L466.445 1469.94L467.859 1471.35L471.076 1474.57L472.495 1475.99L150.6 1802.65L149.18 1801.7L150.672 1800.21L152.302 1798.58L150.457 1797.2L147.241 1794.79L146.041 1793.89L144.841 1794.79L143.062 1796.12L134.32 1786.75L149.289 1771.1L151.863 1773.68L153.391 1775.21L154.796 1773.57L159.621 1767.94L160.736 1766.64L159.621 1765.33L154.796 1759.71L154.735 1759.63L154.667 1759.57L86.0708 1693.37L83.2082 1651.86L84.3263 1652.7L85.5529 1651.45L360.531 1372.45L360.542 1372.44L367.158 1365.83L386.649 1385.32Z" fill="#A9E0F4" id="object_247" stroke="white" stroke-width="4"></path>
<path d="M96.6211 1824.51L109.858 1811.28L119.701 1821.12L121.115 1822.53L122.53 1821.12L140.413 1803.23L144.017 1806.84L97.9721 1852.88L96.6211 1824.51Z" fill="#A9E0F4" id="object_248" stroke="white" stroke-width="4"></path>
<path d="M108.444 1804.62L95.4509 1817.61L90.5387 1750.95L136.72 1797.13L119.565 1812.91L111.273 1804.62L109.858 1803.21L108.444 1804.62Z" fill="#A9E0F4" id="object_249" stroke="white" stroke-width="4"></path>
<path d="M87.3916 1702.63L147.984 1761.01L128.377 1779.91L90.8816 1742.42L87.3916 1702.63Z" fill="#A9E0F4" id="object_250" stroke="white" stroke-width="4"></path>
<path d="M612.788 1054.65V939.649H722.161V1054.65H612.788Z" fill="#A9E0F4" id="object_251" stroke="white" stroke-width="4"></path>
<path d="M726.965 1075.56V1065.08H751.911V1075.56H726.965Z" fill="#A9E0F4" id="object_252" stroke="white" stroke-width="4"></path>
<path d="M783.249 987.089H805.783V1054.65H783.249V987.089Z" fill="#A9E0F4" id="object_253" stroke="white" stroke-width="4"></path>
<path d="M988.305 956.534V1007.21H978.636V956.534H988.305Z" fill="#A9E0F4" id="object_254" stroke="white" stroke-width="4"></path>
<path d="M1395.14 948.514V896.23H1502.9V948.514H1395.14Z" fill="#A9E0F4" id="object_255" stroke="white" stroke-width="4"></path>
<path d="M1508.51 891.405H1543.11V947.71H1508.51V891.405Z" fill="#A9E0F4" id="object_256" stroke="white" stroke-width="4"></path>
<path d="M1418.07 817.452H1401.57V758.735H1548.74V813.02V815.02H1550.74H1657.28V848.81H1640.79H1638.79V850.81V883.385H1420.07V819.452V817.452H1418.07Z" fill="#A9E0F4" id="object_257" stroke="white" stroke-width="4"></path>
<path d="M1629.14 809.412H1555.15V759.54H1629.14V809.412Z" fill="#A9E0F4" id="object_258" stroke="white" stroke-width="4"></path>
<path d="M1635.55 768.405V759.54H1657.28V768.405H1635.55Z" fill="#A9E0F4" id="object_259" stroke="white" stroke-width="4"></path>
<path d="M1648.44 779.661H1645.2V774.012H1648.44V779.661Z" fill="#A9E0F4" id="object_260" stroke="white" stroke-width="4"></path>
<path d="M1636.36 779.661V774.012H1638.79V779.661H1636.36Z" fill="#A9E0F4" id="object_261" stroke="white" stroke-width="4"></path>
<path d="M1644.4 790.918V785.27H1647.63V790.918H1644.4Z" fill="#A9E0F4" id="object_262" stroke="white" stroke-width="4"></path>
<path d="M1644.4 801.371V795.722H1647.63V801.371H1644.4Z" fill="#A9E0F4" id="object_263" stroke="white" stroke-width="4"></path>
<path d="M1653.24 774.012H1657.28V778.857H1653.24V774.012Z" fill="#A9E0F4" id="object_264" stroke="white" stroke-width="4"></path>
<path d="M1657.28 809.412H1653.24V785.27H1657.28V809.412Z" fill="#A9E0F4" id="object_265" stroke="white" stroke-width="4"></path>
<path d="M1646.01 806.979H1648.44V809.411H1646.01V806.979Z" fill="#A9E0F4" id="object_266" stroke="white" stroke-width="4"></path>
<path d="M1638.79 804.979V806.979H1640.4V809.412H1635.55V785.27H1638.79V804.979Z" fill="#A9E0F4" id="object_267" stroke="white" stroke-width="4"></path>
<path d="M1665.3 848.79H1676.22L1688.27 859.423L1678.83 883.385H1665.3V848.79Z" fill="#A9E0F4" id="object_268" stroke="white" stroke-width="4"></path>
<path d="M1665.3 843.182V832.709H1674.97V843.182H1665.3Z" fill="#A9E0F4" id="object_269" stroke="white" stroke-width="4"></path>
<path d="M1681.38 829.101V827.101H1679.38H1678.58H1665.3V799.742H1707.96L1689.78 853.551L1681.38 845.158V829.101Z" fill="#A9E0F4" id="object_270" stroke="white" stroke-width="4"></path>
<path d="M1694.27 793.33H1665.3V776.425H1694.27V793.33Z" fill="#A9E0F4" id="object_271" stroke="white" stroke-width="4"></path>
<path d="M1301.87 862.48V839.142H1317.17V862.48H1301.87Z" fill="#A9E0F4" id="object_272" stroke="white" stroke-width="4"></path>
<path d="M1358.15 824.276V806.979H1362.19V862.479H1322.77V835.533V833.533H1320.77H1302.67V806.979H1306.71V824.276V826.276H1308.71H1356.15H1358.15V824.276Z" fill="#A9E0F4" id="object_273" stroke="white" stroke-width="4"></path>
<path d="M1351.74 806.979V819.864H1313.12V806.979H1351.74Z" fill="#A9E0F4" id="object_274" stroke="white" stroke-width="4"></path>
<path d="M1312.32 752.303H1351.74V765.188H1312.32V752.303Z" fill="#A9E0F4" id="object_275" stroke="white" stroke-width="4"></path>
<path d="M1301.87 708.884H1317.17V732.222H1301.87V708.884Z" fill="#A9E0F4" id="object_276" stroke="white" stroke-width="4"></path>
<path d="M1306.71 747.891V765.188H1302.67V738.634H1321.58H1323.58V736.634V708.884H1363V765.188H1358.15V747.891V745.891H1356.15H1308.71H1306.71V747.891Z" fill="#A9E0F4" id="object_277" stroke="white" stroke-width="4"></path>
<path d="M1295.46 862.48H1019.64V709.688H1295.46V862.48Z" fill="#A9E0F4" id="object_278" stroke="white" stroke-width="4"></path>
<path d="M1658.09 80.1082V748.303H1439.36V80.1082H1658.09Z" fill="#A9E0F4" id="object_279" stroke="white" stroke-width="4"></path>
<path d="M1424.91 566.585H1423.3V568.585V569.801H1373.43V515.105H1424.91V566.585Z" fill="#A9E0F4" id="object_280" stroke="white" stroke-width="4"></path>
<path d="M1324.38 514.321V404.145H1346.92V514.321H1324.38Z" fill="#A9E0F4" id="object_281" stroke="white" stroke-width="4"></path>
<path d="M1246.8 422.638H1248.8V420.638V232.076H1365.8H1368.63V574.214V626.11L1242.37 627.669V422.638H1246.8Z" fill="#A9E0F4" id="object_282" stroke="white" stroke-width="4"></path>
<path d="M1248 223.251V206.346H1272.14V223.251H1248Z" fill="#A9E0F4" id="object_283" stroke="white" stroke-width="4"></path>
<path d="M1293.83 174.183H1305.1V182.244H1293.83V174.183Z" fill="#A9E0F4" id="object_284" stroke="white" stroke-width="4"></path>
<path d="M1325.21 182.244H1310.71V174.183H1325.21V182.244Z" fill="#A9E0F4" id="object_285" stroke="white" stroke-width="4"></path>
<path d="M1292.63 199.109H1294.63V197.109V188.656H1331.64V222.447H1295.44V215.602V213.602H1293.44H1293.02V213.19V211.19H1291.02H1289.81V199.109H1292.63Z" fill="#A9E0F4" id="object_286" stroke="white" stroke-width="4"></path>
<path d="M1360.98 194.285H1367.82V223.251H1337.25V189.46H1358.98V192.285V194.285H1360.98Z" fill="#A9E0F4" id="object_287" stroke="white" stroke-width="4"></path>
<path d="M1346.88 158.122H1330.81V148.453H1355.53L1355.08 152.485L1347.89 156.799L1347.39 157.099L1347.13 157.62L1346.88 158.122Z" fill="#A9E0F4" id="object_288" stroke="white" stroke-width="4"></path>
<path d="M1368.21 170.163H1368.63V187.873H1364.58V186.656V184.656H1362.58H1351.72V170.163H1368.21Z" fill="#A9E0F4" id="object_289" stroke="white" stroke-width="4"></path>
<path d="M1360.56 155.298V149.257H1365H1367V148.453H1367.82V161.833L1365.64 164.555H1351.72V161.31L1359.52 157.054L1360.56 156.485V155.298Z" fill="#A9E0F4" id="object_290" stroke="white" stroke-width="4"></path>
<path d="M1288.2 148.453H1325.21V158.122H1288.2V148.453Z" fill="#A9E0F4" id="object_291" stroke="white" stroke-width="4"></path>
<path d="M1173.22 415.814V399.32H1200.16H1202.99V439.544H1173.22V415.814Z" fill="#A9E0F4" id="object_292" stroke="white" stroke-width="4"></path>
<path d="M1233.54 421.442V423.442H1235.54H1236.76V439.544H1209.4V419.422H1233.54V421.442Z" fill="#A9E0F4" id="object_293" stroke="white" stroke-width="4"></path>
<path d="M1227.89 399.32H1239.98V414.618H1227.89V399.32Z" fill="#A9E0F4" id="object_294" stroke="white" stroke-width="4"></path>
<path d="M1174.02 393.712V379.219H1239.98V393.712H1174.02Z" fill="#A9E0F4" id="object_295" stroke="white" stroke-width="4"></path>
<path d="M1417.65 665.876V639.734H1422.5V672.721H1391.92V667.876H1415.65H1417.65V665.876Z" fill="#A9E0F4" id="object_296" stroke="white" stroke-width="4"></path>
<path d="M1256.84 159.71H1271.33V199.129H1256.84V159.71Z" fill="#A9E0F4" id="object_297" stroke="white" stroke-width="4"></path>
<path d="M1707.14 763.58H1683.8V759.54H1707.14V763.58Z" fill="#A9E0F4" id="object_298" stroke="white" stroke-width="4"></path>
<path d="M1643.59 853.615H1657.28V883.385H1643.59V853.615Z" fill="#A9E0F4" id="object_299" stroke="white" stroke-width="4"></path>
<path d="M1413.65 823.864V883.385H1400.79L1401.55 823.864H1413.65Z" fill="#A9E0F4" id="object_2100" stroke="white" stroke-width="4"></path>
<path d="M1331.62 1085.2V1077.95H1412.85V1085.2H1331.62Z" fill="#A9E0F4" id="object_2101" stroke="white" stroke-width="4"></path>
<path d="M1034.66 1341.25L995.988 1347.82L984.551 1274.62L1023.21 1268.78L1034.66 1341.25Z" fill="#A9E0F4" id="object_2102" stroke="white" stroke-width="4"></path>
<path d="M1075.66 1332.45L1041.01 1338.94L1035.21 1301.97L1069.86 1296.91L1075.66 1332.45Z" fill="#A9E0F4" id="object_2103" stroke="white" stroke-width="4"></path>
<path d="M1088.15 1373.6L1092.99 1384.47L1063.05 1397.3L1058.76 1385.06L1088.15 1373.6Z" fill="#A9E0F4" id="object_2104" stroke="white" stroke-width="4"></path>
<path d="M1058.26 994.737V1020.08H1053.41V987.893H1088.81V1020.08H1083.16V994.737V992.737H1081.16H1060.26H1058.26V994.737Z" fill="#A9E0F4" id="object_2105" stroke="white" stroke-width="4"></path>
<path d="M1381.49 995.541V1020.08H1375.84V988.697H1411.29L1412 1020.08H1405.59V995.541V993.541H1403.59H1383.49H1381.49V995.541Z" fill="#A9E0F4" id="object_2106" stroke="white" stroke-width="4"></path>
<path d="M1343.7 801.371H1325.19V790.094H1343.7V801.371Z" fill="#A9E0F4" id="object_2107" stroke="white" stroke-width="4"></path>
<path d="M1351.74 783.682H1333.23V770.796H1351.74V783.682Z" fill="#A9E0F4" id="object_2108" stroke="white" stroke-width="4"></path>
<path d="M1506.1 1127.82V1062.67H1631.55V1127.82H1506.1Z" fill="#A9E0F4" id="object_2109" stroke="white" stroke-width="4"></path>
<path d="M579.038 765.58V791.722H572.585V708.884H603.964V748.695V763.58H581.038H579.038V765.58Z" fill="#A9E0F4" id="object_2110" stroke="white" stroke-width="4"></path>
<path d="M672.289 294.009V268.258H715.728V294.009H672.289Z" fill="#A9E0F4" id="object_2111" stroke="white" stroke-width="4"></path>
<path d="M607.862 1129.37L592.338 1136.11L590.769 1133.37L606.771 1117.37L607.862 1129.37Z" fill="#A9E0F4" id="object_2112" stroke="white" stroke-width="4"></path>
</g>
</g>
</svg>