<svg width="20" height="20" viewBox="0 0 20 20" fill="none" xmlns="http://www.w3.org/2000/svg">
<path d="M9.38333 10.0358C9.05791 10.3612 9.05791 10.8889 9.38333 11.2143C9.70875 11.5397 10.2364 11.5397 10.5618 11.2143L9.38333 10.0358ZM7.55138 7.91736C7.43666 8.36308 7.70499 8.81741 8.1507 8.93208C8.59641 9.04683 9.05075 8.7785 9.16541 8.3328L7.55138 7.91736ZM9.97258 12.2917C9.51233 12.2917 9.13925 12.6648 9.13925 13.1251C9.13925 13.5853 9.51233 13.9584 9.97258 13.9584V12.2917ZM9.98091 13.9584C10.4412 13.9584 10.8142 13.5853 10.8142 13.1251C10.8142 12.6648 10.4412 12.2917 9.98091 12.2917V13.9584ZM10.8059 8.54175C10.8059 8.68608 10.768 8.79616 10.5397 9.0165C10.4116 9.14008 10.2607 9.26283 10.0517 9.43675C9.85308 9.602 9.62016 9.799 9.38333 10.0358L10.5618 11.2143C10.7417 11.0345 10.9255 10.8778 11.1175 10.7181C11.299 10.5672 11.5127 10.3937 11.6972 10.2157C12.0938 9.83283 12.4726 9.31791 12.4726 8.54175H10.8059ZM9.97258 7.70841C10.4328 7.70841 10.8059 8.08151 10.8059 8.54175H12.4726C12.4726 7.16104 11.3532 6.04175 9.97258 6.04175V7.70841ZM9.16541 8.3328C9.258 7.9732 9.58541 7.70841 9.97258 7.70841V6.04175C8.8065 6.04175 7.82886 6.83928 7.55138 7.91736L9.16541 8.3328ZM9.97258 13.9584H9.98091V12.2917H9.97258V13.9584ZM16.6667 10.0001C16.6667 13.682 13.682 16.6667 10.0001 16.6667V18.3334C14.6024 18.3334 18.3334 14.6024 18.3334 10.0001H16.6667ZM10.0001 16.6667C6.31818 16.6667 3.33341 13.682 3.33341 10.0001H1.66675C1.66675 14.6024 5.39771 18.3334 10.0001 18.3334V16.6667ZM3.33341 10.0001C3.33341 6.31818 6.31818 3.33341 10.0001 3.33341V1.66675C5.39771 1.66675 1.66675 5.39771 1.66675 10.0001H3.33341ZM10.0001 3.33341C13.682 3.33341 16.6667 6.31818 16.6667 10.0001H18.3334C18.3334 5.39771 14.6024 1.66675 10.0001 1.66675V3.33341Z" fill="#3A6AD6"/>
</svg>
