<svg width="20" height="20" viewBox="0 0 20 20" fill="none" xmlns="http://www.w3.org/2000/svg">
<path d="M10.8335 2.50001L11.4227 1.91075C11.2665 1.75447 11.0545 1.66667 10.8335 1.66667V2.50001ZM15.8335 7.50001H16.6668C16.6668 7.27899 16.579 7.06703 16.4227 6.91075L15.8335 7.50001ZM6.66683 14.1667C6.66683 14.6269 7.03993 15 7.50016 15C7.9604 15 8.3335 14.6269 8.3335 14.1667H6.66683ZM8.3335 12.5C8.3335 12.0398 7.9604 11.6667 7.50016 11.6667C7.03993 11.6667 6.66683 12.0398 6.66683 12.5H8.3335ZM9.16683 14.1667C9.16683 14.6269 9.53991 15 10.0002 15C10.4604 15 10.8335 14.6269 10.8335 14.1667H9.16683ZM10.8335 10C10.8335 9.53976 10.4604 9.16667 10.0002 9.16667C9.53991 9.16667 9.16683 9.53976 9.16683 10H10.8335ZM11.6668 14.1667C11.6668 14.6269 12.0399 15 12.5002 15C12.9604 15 13.3335 14.6269 13.3335 14.1667H11.6668ZM13.3335 10.8333C13.3335 10.3731 12.9604 10 12.5002 10C12.0399 10 11.6668 10.3731 11.6668 10.8333H13.3335ZM10.8335 1.66667H6.8335V3.33334H10.8335V1.66667ZM3.3335 5.16667V14.8333H5.00016V5.16667H3.3335ZM6.8335 18.3333H13.1668V16.6667H6.8335V18.3333ZM16.6668 14.8333V7.50001H15.0002V14.8333H16.6668ZM16.4227 6.91075L11.4227 1.91075L10.2442 3.08926L15.2442 8.08926L16.4227 6.91075ZM13.1668 18.3333C13.6198 18.3333 14.0097 18.334 14.3293 18.3078C14.6588 18.2809 14.9865 18.2215 15.3018 18.0608L14.5452 16.5758C14.5039 16.5968 14.42 16.6283 14.1937 16.6468C13.9575 16.666 13.6473 16.6667 13.1668 16.6667V18.3333ZM15.0002 14.8333C15.0002 15.3138 14.9995 15.624 14.9802 15.8602C14.9617 16.0865 14.9303 16.1704 14.9093 16.2117L16.3943 16.9683C16.555 16.653 16.6144 16.3253 16.6413 15.9958C16.6675 15.6762 16.6668 15.2863 16.6668 14.8333H15.0002ZM15.3018 18.0608C15.7722 17.8212 16.1547 17.4388 16.3943 16.9683L14.9093 16.2117C14.8294 16.3685 14.702 16.4959 14.5452 16.5758L15.3018 18.0608ZM3.3335 14.8333C3.3335 15.2863 3.33285 15.6762 3.35897 15.9958C3.38589 16.3253 3.44532 16.653 3.60598 16.9683L5.09099 16.2117C5.07 16.1704 5.0386 16.0865 5.02011 15.8602C5.00081 15.624 5.00016 15.3138 5.00016 14.8333H3.3335ZM6.8335 16.6667C6.35304 16.6667 6.04281 16.666 5.8067 16.6468C5.58031 16.6283 5.49637 16.5968 5.45517 16.5758L4.69852 18.0608C5.01384 18.2215 5.34152 18.2809 5.67097 18.3078C5.9907 18.334 6.38054 18.3333 6.8335 18.3333V16.6667ZM3.60598 16.9683C3.84566 17.4388 4.22811 17.8212 4.69852 18.0608L5.45517 16.5758C5.29837 16.4959 5.17089 16.3685 5.09099 16.2117L3.60598 16.9683ZM6.8335 1.66667C6.38054 1.66667 5.9907 1.66602 5.67097 1.69215C5.34152 1.71906 5.01384 1.7785 4.69852 1.93916L5.45517 3.42416C5.49637 3.40317 5.58031 3.37177 5.8067 3.35328C6.04281 3.33399 6.35304 3.33334 6.8335 3.33334V1.66667ZM5.00016 5.16667C5.00016 4.68621 5.00081 4.37598 5.02011 4.13987C5.0386 3.91348 5.07 3.82955 5.09099 3.78835L3.60598 3.0317C3.44532 3.34701 3.38589 3.6747 3.35897 4.00415C3.33285 4.32387 3.3335 4.71371 3.3335 5.16667H5.00016ZM4.69852 1.93916C4.22811 2.17884 3.84566 2.56129 3.60598 3.0317L5.09099 3.78835C5.17089 3.63155 5.29837 3.50406 5.45517 3.42416L4.69852 1.93916ZM10.0002 2.50001V6.16667H11.6668V2.50001H10.0002ZM12.1668 8.33334H15.8335V6.66667H12.1668V8.33334ZM10.0002 6.16667C10.0002 6.38628 9.9995 6.6011 10.0142 6.78186C10.0298 6.97236 10.0666 7.19714 10.1818 7.42332L11.6668 6.66667C11.6912 6.7146 11.6826 6.73357 11.6754 6.64615C11.6675 6.54899 11.6668 6.41378 11.6668 6.16667H10.0002ZM12.1668 6.66667C11.9197 6.66667 11.7845 6.66602 11.6873 6.65809C11.5999 6.65095 11.6189 6.64226 11.6668 6.66667L10.9102 8.15168C11.1363 8.26693 11.3612 8.30366 11.5517 8.31921C11.7324 8.33401 11.9472 8.33334 12.1668 8.33334V6.66667ZM10.1818 7.42332C10.3416 7.73692 10.5966 7.9919 10.9102 8.15168L11.6668 6.66667L10.1818 7.42332ZM8.3335 14.1667V12.5H6.66683V14.1667H8.3335ZM10.8335 14.1667V10H9.16683V14.1667H10.8335ZM13.3335 14.1667V10.8333H11.6668V14.1667H13.3335Z" fill="#332F47"/>
</svg>
