<svg width="643" height="237" viewBox="0 0 643 237" fill="none" xmlns="http://www.w3.org/2000/svg">
<g clip-path="url(#clip0_303_10558)">
<path d="M316.059 95.524C323.617 95.524 329.612 97.813 334.044 102.391C338.55 106.969 340.802 113.327 340.802 121.466V157H322.272V123.973C322.272 120.049 321.219 117.033 319.111 114.926C317.077 112.746 314.243 111.656 310.609 111.656C306.976 111.656 304.106 112.746 301.998 114.926C299.964 117.033 298.946 120.049 298.946 123.973V157H280.416V123.973C280.416 120.049 279.363 117.033 277.255 114.926C275.221 112.746 272.387 111.656 268.753 111.656C265.12 111.656 262.25 112.746 260.142 114.926C258.108 117.033 257.09 120.049 257.09 123.973V157H238.451V96.178H257.09V103.808C258.98 101.265 261.45 99.2663 264.502 97.813C267.554 96.287 271.006 95.524 274.857 95.524C279.435 95.524 283.505 96.505 287.065 98.467C290.699 100.429 293.533 103.227 295.567 106.86C297.675 103.517 300.545 100.792 304.178 98.685C307.812 96.5777 311.772 95.524 316.059 95.524ZM410.99 125.608C410.99 127.352 410.881 129.169 410.663 131.058H368.48C368.771 134.837 369.97 137.743 372.077 139.778C374.257 141.74 376.91 142.721 380.034 142.721C384.685 142.721 387.919 140.759 389.735 136.835H409.573C408.556 140.832 406.703 144.429 404.014 147.626C401.398 150.823 398.092 153.33 394.095 155.147C390.099 156.964 385.63 157.872 380.688 157.872C374.73 157.872 369.425 156.6 364.774 154.057C360.124 151.514 356.49 147.88 353.874 143.157C351.258 138.434 349.95 132.911 349.95 126.589C349.95 120.267 351.222 114.744 353.765 110.021C356.381 105.298 360.015 101.664 364.665 99.121C369.316 96.5777 374.657 95.306 380.688 95.306C386.574 95.306 391.806 96.5413 396.384 99.012C400.962 101.483 404.523 105.007 407.066 109.585C409.682 114.163 410.99 119.504 410.99 125.608ZM391.915 120.703C391.915 117.506 390.825 114.962 388.645 113.073C386.465 111.184 383.74 110.239 380.47 110.239C377.346 110.239 374.693 111.147 372.513 112.964C370.406 114.781 369.098 117.36 368.589 120.703H391.915ZM454.54 141.195V157H445.057C438.299 157 433.031 155.365 429.252 152.095C425.474 148.752 423.584 143.339 423.584 135.854V111.656H416.172V96.178H423.584V81.354H442.223V96.178H454.431V111.656H442.223V136.072C442.223 137.889 442.659 139.197 443.531 139.996C444.403 140.795 445.857 141.195 447.891 141.195H454.54ZM483.38 106.315C485.56 102.972 488.285 100.356 491.555 98.467C494.825 96.505 498.458 95.524 502.455 95.524V115.253H497.332C492.681 115.253 489.193 116.27 486.868 118.305C484.542 120.267 483.38 123.755 483.38 128.769V157H464.741V96.178H483.38V106.315ZM520.556 89.856C517.286 89.856 514.597 88.9113 512.49 87.022C510.455 85.06 509.438 82.662 509.438 79.828C509.438 76.9213 510.455 74.5233 512.49 72.634C514.597 70.672 517.286 69.691 520.556 69.691C523.753 69.691 526.369 70.672 528.404 72.634C530.511 74.5233 531.565 76.9213 531.565 79.828C531.565 82.662 530.511 85.06 528.404 87.022C526.369 88.9113 523.753 89.856 520.556 89.856ZM529.821 96.178V157H511.182V96.178H529.821Z" fill="#3A6AD6"/>
<path d="M590.017 157L574.43 133.565L560.696 157H539.55L564.075 118.087L539.005 80.482H560.696L576.065 103.59L589.581 80.482H610.727L586.42 119.068L611.708 157H590.017Z" fill="#4A9951"/>
<circle cx="121.5" cy="118.5" r="81.5" fill="#3A6AD6"/>
<circle cx="151.767" cy="79.069" r="11.2462" fill="white"/>
</g>
<defs>
<clipPath id="clip0_303_10558">
<rect width="643" height="237" fill="white"/>
</clipPath>
</defs>
</svg>
