<svg width="643" height="237" viewBox="0 0 643 237" fill="none" xmlns="http://www.w3.org/2000/svg">
<g clip-path="url(#clip0_303_10586)">
<circle cx="45.5" cy="118.5" r="45.5" fill="#3A6AD6"/>
<circle cx="62.3977" cy="96.4864" r="6.27853" fill="white"/>
<path d="M232.059 86.524C239.617 86.524 245.612 88.813 250.044 93.391C254.55 97.969 256.802 104.327 256.802 112.466V148H238.272V114.973C238.272 111.049 237.219 108.033 235.111 105.926C233.077 103.746 230.243 102.656 226.609 102.656C222.976 102.656 220.106 103.746 217.998 105.926C215.964 108.033 214.946 111.049 214.946 114.973V148H196.416V114.973C196.416 111.049 195.363 108.033 193.255 105.926C191.221 103.746 188.387 102.656 184.753 102.656C181.12 102.656 178.25 103.746 176.142 105.926C174.108 108.033 173.09 111.049 173.09 114.973V148H154.451V87.178H173.09V94.808C174.98 92.2647 177.45 90.2663 180.502 88.813C183.554 87.287 187.006 86.524 190.857 86.524C195.435 86.524 199.505 87.505 203.065 89.467C206.699 91.429 209.533 94.2267 211.567 97.86C213.675 94.5173 216.545 91.7923 220.178 89.685C223.812 87.5777 227.772 86.524 232.059 86.524ZM326.99 116.608C326.99 118.352 326.881 120.169 326.663 122.058H284.48C284.771 125.837 285.97 128.743 288.077 130.778C290.257 132.74 292.91 133.721 296.034 133.721C300.685 133.721 303.919 131.759 305.735 127.835H325.573C324.556 131.832 322.703 135.429 320.014 138.626C317.398 141.823 314.092 144.33 310.095 146.147C306.099 147.964 301.63 148.872 296.688 148.872C290.73 148.872 285.425 147.6 280.774 145.057C276.124 142.514 272.49 138.88 269.874 134.157C267.258 129.434 265.95 123.911 265.95 117.589C265.95 111.267 267.222 105.744 269.765 101.021C272.381 96.2977 276.015 92.6643 280.665 90.121C285.316 87.5777 290.657 86.306 296.688 86.306C302.574 86.306 307.806 87.5413 312.384 90.012C316.962 92.4827 320.523 96.007 323.066 100.585C325.682 105.163 326.99 110.504 326.99 116.608ZM307.915 111.703C307.915 108.506 306.825 105.962 304.645 104.073C302.465 102.184 299.74 101.239 296.47 101.239C293.346 101.239 290.693 102.147 288.513 103.964C286.406 105.781 285.098 108.36 284.589 111.703H307.915ZM370.54 132.195V148H361.057C354.299 148 349.031 146.365 345.252 143.095C341.474 139.752 339.584 134.339 339.584 126.854V102.656H332.172V87.178H339.584V72.354H358.223V87.178H370.431V102.656H358.223V127.072C358.223 128.889 358.659 130.197 359.531 130.996C360.403 131.795 361.857 132.195 363.891 132.195H370.54ZM399.38 97.315C401.56 93.9723 404.285 91.3563 407.555 89.467C410.825 87.505 414.458 86.524 418.455 86.524V106.253H413.332C408.681 106.253 405.193 107.27 402.868 109.305C400.542 111.267 399.38 114.755 399.38 119.769V148H380.741V87.178H399.38V97.315ZM436.556 80.856C433.286 80.856 430.597 79.9113 428.49 78.022C426.455 76.06 425.438 73.662 425.438 70.828C425.438 67.9213 426.455 65.5233 428.49 63.634C430.597 61.672 433.286 60.691 436.556 60.691C439.753 60.691 442.369 61.672 444.404 63.634C446.511 65.5233 447.565 67.9213 447.565 70.828C447.565 73.662 446.511 76.06 444.404 78.022C442.369 79.9113 439.753 80.856 436.556 80.856ZM445.821 87.178V148H427.182V87.178H445.821Z" fill="#3A6AD6"/>
<path d="M506.017 148L490.43 124.565L476.696 148H455.55L480.075 109.087L455.005 71.482H476.696L492.065 94.59L505.581 71.482H526.727L502.42 110.068L527.708 148H506.017Z" fill="#4A9951"/>
</g>
<defs>
<clipPath id="clip0_303_10586">
<rect width="643" height="237" fill="white"/>
</clipPath>
</defs>
</svg>
