<svg width="863" height="1000" viewBox="0 0 863 1000" fill="none" xmlns="http://www.w3.org/2000/svg">
<path d="M249.678 823.66C262.505 823.66 272.68 827.545 280.203 835.315C287.85 843.085 291.673 853.877 291.673 867.69V928H260.223V871.945C260.223 865.285 258.435 860.167 254.858 856.59C251.405 852.89 246.595 851.04 240.428 851.04C234.262 851.04 229.39 852.89 225.813 856.59C222.36 860.167 220.633 865.285 220.633 871.945V928H189.183V871.945C189.183 865.285 187.395 860.167 183.818 856.59C180.365 852.89 175.555 851.04 169.388 851.04C163.222 851.04 158.35 852.89 154.773 856.59C151.32 860.167 149.593 865.285 149.593 871.945V928H117.958V824.77H149.593V837.72C152.8 833.403 156.993 830.012 162.173 827.545C167.353 824.955 173.212 823.66 179.748 823.66C187.518 823.66 194.425 825.325 200.468 828.655C206.635 831.985 211.445 836.733 214.898 842.9C218.475 837.227 223.347 832.602 229.513 829.025C235.68 825.448 242.402 823.66 249.678 823.66ZM410.926 874.72C410.926 877.68 410.741 880.763 410.371 883.97H338.776C339.27 890.383 341.305 895.317 344.881 898.77C348.581 902.1 353.083 903.765 358.386 903.765C366.28 903.765 371.768 900.435 374.851 893.775H408.521C406.795 900.558 403.65 906.663 399.086 912.09C394.646 917.517 389.035 921.772 382.251 924.855C375.468 927.938 367.883 929.48 359.496 929.48C349.383 929.48 340.38 927.322 332.486 923.005C324.593 918.688 318.426 912.522 313.986 904.505C309.546 896.488 307.326 887.115 307.326 876.385C307.326 865.655 309.485 856.282 313.801 848.265C318.241 840.248 324.408 834.082 332.301 829.765C340.195 825.448 349.26 823.29 359.496 823.29C369.486 823.29 378.366 825.387 386.136 829.58C393.906 833.773 399.95 839.755 404.266 847.525C408.706 855.295 410.926 864.36 410.926 874.72ZM378.551 866.395C378.551 860.968 376.701 856.652 373.001 853.445C369.301 850.238 364.676 848.635 359.126 848.635C353.823 848.635 349.321 850.177 345.621 853.26C342.045 856.343 339.825 860.722 338.961 866.395H378.551ZM484.968 901.175V928H468.873C457.403 928 448.462 925.225 442.048 919.675C435.635 914.002 432.428 904.813 432.428 892.11V851.04H419.848V824.77H432.428V799.61H464.063V824.77H484.783V851.04H464.063V892.48C464.063 895.563 464.803 897.783 466.283 899.14C467.763 900.497 470.23 901.175 473.683 901.175H484.968ZM534.043 841.975C537.743 836.302 542.368 831.862 547.918 828.655C553.468 825.325 559.635 823.66 566.418 823.66V857.145H557.723C549.83 857.145 543.91 858.872 539.963 862.325C536.016 865.655 534.043 871.575 534.043 880.085V928H502.408V824.77H534.043V841.975ZM597.267 814.04C591.717 814.04 587.154 812.437 583.577 809.23C580.124 805.9 578.397 801.83 578.397 797.02C578.397 792.087 580.124 788.017 583.577 784.81C587.154 781.48 591.717 779.815 597.267 779.815C602.694 779.815 607.134 781.48 610.587 784.81C614.164 788.017 615.952 792.087 615.952 797.02C615.952 801.83 614.164 805.9 610.587 809.23C607.134 812.437 602.694 814.04 597.267 814.04ZM612.992 824.77V928H581.357V824.77H612.992Z" fill="#3A6AD6"/>
<path d="M715.286 928L688.831 888.225L665.521 928H629.631L671.256 861.955L628.706 798.13H665.521L691.606 837.35L714.546 798.13H750.436L709.181 863.62L752.101 928H715.286Z" fill="#4A9951"/>
<circle cx="431.5" cy="381.5" r="293.5" fill="#3A6AD6"/>
<circle cx="540.5" cy="239.5" r="40.5" fill="white"/>
</svg>
