<svg width="643" height="237" viewBox="0 0 643 237" fill="none" xmlns="http://www.w3.org/2000/svg">
<g clip-path="url(#clip0_3_5)">
<path d="M129.882 64.911C129.867 47.705 123.016 31.208 110.833 19.039C98.65 6.87 82.13 0.023 64.897 0H53.557V22.614H64.897C75.134 22.616 85.025 26.322 92.736 33.046C100.447 39.769 105.457 49.055 106.837 59.183C108.218 69.312 105.875 79.596 100.243 88.132C94.612 96.669 86.072 102.878 76.207 105.611V63.692H53.557V108.194C37.574 111.051 23.24 119.776 13.375 132.652C3.50993 145.528 -1.17207 161.624 0.249929 177.773C1.67093 193.922 9.09394 208.955 21.057 219.916C33.021 230.876 48.659 236.971 64.897 237H76.207V214.386H64.897C54.656 214.391 44.761 210.69 37.044 203.969C29.328 197.247 24.313 187.961 22.929 177.831C21.544 167.701 23.885 157.413 29.517 148.874C35.148 140.334 43.689 134.123 53.557 131.389V173.279H76.207V128.806C91.241 126.135 104.855 118.272 114.667 106.591C124.48 94.91 129.866 80.156 129.882 64.911Z" fill="#1EA8E7"/>
<path d="M176.969 104V58.1875H183.031V104H176.969ZM193.688 104V58.1875H199.906L223.969 94.1562V58.1875H229.781V104H223.562L199.5 68V104H193.688ZM240.312 104V58.1875H271.219V63.5938H246.375V77.7812H267.875V83.1875H246.375V104H240.312ZM280.156 104V58.1875H286.219V104H280.156ZM296.875 104V58.1875H303.094L327.156 94.1562V58.1875H332.969V104H326.75L302.688 68V104H296.875ZM344.219 104V58.1875H350.281V104H344.219ZM372.656 104V63.5938H357.562V58.1875H393.875V63.5938H378.719V104H372.656ZM413.031 104V84.5938L395.375 58.1875H402.75L411.781 72C413.448 74.5833 415 77.1667 416.438 79.75C417.812 77.3542 419.479 74.6562 421.438 71.6562L430.312 58.1875H437.375L419.094 84.5938V104H413.031ZM459.25 104V58.1875H468.375L479.219 90.625C480.219 93.6458 480.948 95.9062 481.406 97.4062C481.927 95.7396 482.74 93.2917 483.844 90.0625L494.812 58.1875H502.969V104H497.125V65.6562L483.812 104H478.344L465.094 65V104H459.25ZM507.719 104L525.312 58.1875H531.844L550.594 104H543.688L538.344 90.125H519.188L514.156 104H507.719ZM520.938 85.1875H536.469L531.688 72.5C530.229 68.6458 529.146 65.4792 528.438 63C527.854 65.9375 527.031 68.8542 525.969 71.75L520.938 85.1875ZM555.188 104V58.1875H561.25V98.5938H583.812V104H555.188ZM590.812 104V58.1875H596.875V98.5938H619.438V104H590.812Z" fill="#1EA8E7"/>
<path d="M170.906 178L188.5 132.188H195.031L213.781 178H206.875L201.531 164.125H182.375L177.344 178H170.906ZM184.125 159.188H199.656L194.875 146.5C193.417 142.646 192.333 139.479 191.625 137C191.042 139.938 190.219 142.854 189.156 145.75L184.125 159.188ZM225.531 178V137.594H210.438V132.188H246.75V137.594H231.594V178H225.531ZM265.906 178V158.594L248.25 132.188H255.625L264.656 146C266.323 148.583 267.875 151.167 269.312 153.75C270.688 151.354 272.354 148.656 274.312 145.656L283.188 132.188H290.25L271.969 158.594V178H265.906ZM295.781 178V132.188H316.094C320.177 132.188 323.281 132.604 325.406 133.438C327.531 134.25 329.229 135.698 330.5 137.781C331.771 139.865 332.406 142.167 332.406 144.688C332.406 147.938 331.354 150.677 329.25 152.906C327.146 155.135 323.896 156.552 319.5 157.156C321.104 157.927 322.323 158.688 323.156 159.438C324.927 161.062 326.604 163.094 328.188 165.531L336.156 178H328.531L322.469 168.469C320.698 165.719 319.24 163.615 318.094 162.156C316.948 160.698 315.917 159.677 315 159.094C314.104 158.51 313.188 158.104 312.25 157.875C311.562 157.729 310.438 157.656 308.875 157.656H301.844V178H295.781ZM301.844 152.406H314.875C317.646 152.406 319.812 152.125 321.375 151.562C322.938 150.979 324.125 150.062 324.938 148.812C325.75 147.542 326.156 146.167 326.156 144.688C326.156 142.521 325.365 140.74 323.781 139.344C322.219 137.948 319.74 137.25 316.344 137.25H301.844V152.406ZM336.906 178L354.5 132.188H361.031L379.781 178H372.875L367.531 164.125H348.375L343.344 178H336.906ZM350.125 159.188H365.656L360.875 146.5C359.417 142.646 358.333 139.479 357.625 137C357.042 139.938 356.219 142.854 355.156 145.75L350.125 159.188ZM414.688 132.188H420.75V158.656C420.75 163.26 420.229 166.917 419.188 169.625C418.146 172.333 416.26 174.542 413.531 176.25C410.823 177.938 407.26 178.781 402.844 178.781C398.552 178.781 395.042 178.042 392.312 176.562C389.583 175.083 387.635 172.948 386.469 170.156C385.302 167.344 384.719 163.51 384.719 158.656V132.188H390.781V158.625C390.781 162.604 391.146 165.542 391.875 167.438C392.625 169.312 393.896 170.76 395.688 171.781C397.5 172.802 399.708 173.312 402.312 173.312C406.771 173.312 409.948 172.302 411.844 170.281C413.74 168.26 414.688 164.375 414.688 158.625V132.188Z" fill="#252525"/>
</g>
<defs>
<clipPath id="clip0_3_5">
<rect width="643" height="237" fill="white"/>
</clipPath>
</defs>
</svg>
